G04 #@! TF.GenerationSoftware,KiCad,Pcbnew,(6.0.1-0)*
G04 #@! TF.CreationDate,2022-06-21T09:38:52-07:00*
G04 #@! TF.ProjectId,TapTap,54617054-6170-42e6-9b69-6361645f7063,rev?*
G04 #@! TF.SameCoordinates,Original*
G04 #@! TF.FileFunction,Legend,Bot*
G04 #@! TF.FilePolarity,Positive*
%FSLAX46Y46*%
G04 Gerber Fmt 4.6, Leading zero omitted, Abs format (unit mm)*
G04 Created by KiCad (PCBNEW (6.0.1-0)) date 2022-06-21 09:38:52*
%MOMM*%
%LPD*%
G01*
G04 APERTURE LIST*
%ADD10C,0.150000*%
%ADD11C,1.651000*%
%ADD12R,1.700000X1.700000*%
%ADD13O,1.700000X1.700000*%
%ADD14C,4.400000*%
%ADD15R,2.200000X2.200000*%
%ADD16O,2.200000X2.200000*%
%ADD17R,1.905000X2.000000*%
%ADD18O,1.905000X2.000000*%
G04 APERTURE END LIST*
D10*
X106232000Y-66564000D02*
X106432000Y-66764000D01*
X101432000Y-66564000D02*
X101632000Y-66764000D01*
X101032000Y-66564000D02*
X101432000Y-66564000D01*
X105832000Y-66564000D02*
X106232000Y-66564000D01*
X101432000Y-68564000D02*
X101032000Y-68564000D01*
X100832000Y-66764000D02*
X101032000Y-66564000D01*
X106232000Y-68564000D02*
X105832000Y-68564000D01*
X99432000Y-67564000D02*
X100632000Y-67564000D01*
X100832000Y-68364000D02*
X100632000Y-67564000D01*
X101032000Y-68564000D02*
X100832000Y-68364000D01*
X106432000Y-68364000D02*
X106232000Y-68564000D01*
X101632000Y-68364000D02*
X101432000Y-68564000D01*
X100632000Y-67564000D02*
X100832000Y-66764000D01*
X106632000Y-67564000D02*
X107832000Y-67564000D01*
X106632000Y-67564000D02*
X106432000Y-68364000D01*
X105632000Y-66764000D02*
X105832000Y-66564000D01*
X105632000Y-68364000D02*
X101632000Y-68364000D01*
X105832000Y-68564000D02*
X105632000Y-68364000D01*
X106432000Y-66764000D02*
X106632000Y-67564000D01*
X101632000Y-66764000D02*
X105632000Y-66764000D01*
D11*
X98552000Y-67564000D03*
X108712000Y-67564000D03*
%LPC*%
D12*
X113284000Y-63749000D03*
D13*
X113284000Y-66289000D03*
D14*
X112776000Y-71755000D03*
D15*
X98552000Y-62992000D03*
D16*
X108712000Y-62992000D03*
D12*
X101092000Y-72136000D03*
D13*
X103632000Y-72136000D03*
X106172000Y-72136000D03*
D14*
X112776000Y-57912000D03*
D17*
X101092000Y-58095000D03*
D18*
X103632000Y-58095000D03*
X106172000Y-58095000D03*
D11*
X98552000Y-67564000D03*
X108712000Y-67564000D03*
M02*
