%FSLAX45Y45*%
G04 Gerber Fmt 4.5, Leading zero omitted, Abs format (unit mm)*
G04 Created by KiCad (PCBNEW (6.0.1-0)) date 2022-06-21 09:38:59*
%MOMM*%
%LPD*%
G01*
G04 APERTURE LIST*
%TA.AperFunction,Profile*%
%ADD10C,0.100000*%
%TD*%
%ADD11C,0.200000*%
%ADD12C,0.099060*%
%ADD13C,0.100000*%
%ADD14C,0.110000*%
%ADD15C,0.220000*%
G04 APERTURE END LIST*
D10*
X9740900Y-5435600D02*
G75*
G03*
X9588500Y-5588000I0J-152400D01*
G01*
X12687300Y-5435600D02*
X9740900Y-5435600D01*
X9588500Y-7404100D02*
G75*
G03*
X9740900Y-7556500I152400J0D01*
G01*
X12839700Y-5588000D02*
G75*
G03*
X12687300Y-5435600I-152400J0D01*
G01*
X9588500Y-5588000D02*
X9588500Y-7404100D01*
X12839700Y-7404100D02*
X12839700Y-5588000D01*
X12687300Y-7556500D02*
G75*
G03*
X12839700Y-7404100I0J152400D01*
G01*
X9740900Y-7556500D02*
X12687300Y-7556500D01*
D11*
D12*
X9805670Y-6706870D02*
X9904730Y-6805930D01*
X9904730Y-6706870D02*
X9805670Y-6805930D01*
X10821670Y-6706870D02*
X10920730Y-6805930D01*
X10920730Y-6706870D02*
X10821670Y-6805930D01*
D13*
X10159200Y-7213600D02*
G75*
G03*
X10159200Y-7213600I-50000J0D01*
G01*
X10413200Y-7213600D02*
G75*
G03*
X10413200Y-7213600I-50000J0D01*
G01*
X10667200Y-7213600D02*
G75*
G03*
X10667200Y-7213600I-50000J0D01*
G01*
X11378400Y-6374900D02*
G75*
G03*
X11378400Y-6374900I-50000J0D01*
G01*
X11378400Y-6628900D02*
G75*
G03*
X11378400Y-6628900I-50000J0D01*
G01*
D14*
X9855200Y-6244200D02*
X9855200Y-6354200D01*
X9800200Y-6299200D02*
X9910200Y-6299200D01*
X10109200Y-5754500D02*
X10109200Y-5864500D01*
X10054200Y-5809500D02*
X10164200Y-5809500D01*
X10363200Y-5754500D02*
X10363200Y-5864500D01*
X10308200Y-5809500D02*
X10418200Y-5809500D01*
X10617200Y-5754500D02*
X10617200Y-5864500D01*
X10562200Y-5809500D02*
X10672200Y-5809500D01*
X10871200Y-6244200D02*
X10871200Y-6354200D01*
X10816200Y-6299200D02*
X10926200Y-6299200D01*
D15*
X11355382Y-5868982D02*
X11355382Y-5713417D01*
X11199817Y-5713417D01*
X11199817Y-5868982D01*
X11355382Y-5868982D01*
X11355382Y-7253282D02*
X11355382Y-7097717D01*
X11199817Y-7097717D01*
X11199817Y-7253282D01*
X11355382Y-7253282D01*
D11*
X9841119Y-7871976D02*
X9841119Y-7671976D01*
X9888738Y-7671976D01*
X9917310Y-7681500D01*
X9936357Y-7700548D01*
X9945881Y-7719595D01*
X9955405Y-7757690D01*
X9955405Y-7786262D01*
X9945881Y-7824357D01*
X9936357Y-7843405D01*
X9917310Y-7862452D01*
X9888738Y-7871976D01*
X9841119Y-7871976D01*
X10041119Y-7871976D02*
X10041119Y-7738643D01*
X10041119Y-7776738D02*
X10050643Y-7757690D01*
X10060167Y-7748167D01*
X10079214Y-7738643D01*
X10098262Y-7738643D01*
X10164929Y-7871976D02*
X10164929Y-7738643D01*
X10164929Y-7671976D02*
X10155405Y-7681500D01*
X10164929Y-7691024D01*
X10174452Y-7681500D01*
X10164929Y-7671976D01*
X10164929Y-7691024D01*
X10288738Y-7871976D02*
X10269690Y-7862452D01*
X10260167Y-7843405D01*
X10260167Y-7671976D01*
X10393500Y-7871976D02*
X10374452Y-7862452D01*
X10364929Y-7843405D01*
X10364929Y-7671976D01*
X10622071Y-7871976D02*
X10622071Y-7671976D01*
X10688738Y-7814833D01*
X10755405Y-7671976D01*
X10755405Y-7871976D01*
X10936357Y-7871976D02*
X10936357Y-7767214D01*
X10926833Y-7748167D01*
X10907786Y-7738643D01*
X10869690Y-7738643D01*
X10850643Y-7748167D01*
X10936357Y-7862452D02*
X10917310Y-7871976D01*
X10869690Y-7871976D01*
X10850643Y-7862452D01*
X10841119Y-7843405D01*
X10841119Y-7824357D01*
X10850643Y-7805309D01*
X10869690Y-7795786D01*
X10917310Y-7795786D01*
X10936357Y-7786262D01*
X11031595Y-7738643D02*
X11031595Y-7938643D01*
X11031595Y-7748167D02*
X11050643Y-7738643D01*
X11088738Y-7738643D01*
X11107786Y-7748167D01*
X11117310Y-7757690D01*
X11126833Y-7776738D01*
X11126833Y-7833881D01*
X11117310Y-7852928D01*
X11107786Y-7862452D01*
X11088738Y-7871976D01*
X11050643Y-7871976D01*
X11031595Y-7862452D01*
X11212548Y-7852928D02*
X11222071Y-7862452D01*
X11212548Y-7871976D01*
X11203024Y-7862452D01*
X11212548Y-7852928D01*
X11212548Y-7871976D01*
X11212548Y-7748167D02*
X11222071Y-7757690D01*
X11212548Y-7767214D01*
X11203024Y-7757690D01*
X11212548Y-7748167D01*
X11212548Y-7767214D01*
D12*
X9484440Y-8151970D02*
X9583500Y-8251030D01*
X9583500Y-8151970D02*
X9484440Y-8251030D01*
D11*
X9879214Y-8091976D02*
X9898262Y-8091976D01*
X9917310Y-8101500D01*
X9926833Y-8111024D01*
X9936357Y-8130071D01*
X9945881Y-8168167D01*
X9945881Y-8215786D01*
X9936357Y-8253881D01*
X9926833Y-8272928D01*
X9917310Y-8282452D01*
X9898262Y-8291976D01*
X9879214Y-8291976D01*
X9860167Y-8282452D01*
X9850643Y-8272928D01*
X9841119Y-8253881D01*
X9831595Y-8215786D01*
X9831595Y-8168167D01*
X9841119Y-8130071D01*
X9850643Y-8111024D01*
X9860167Y-8101500D01*
X9879214Y-8091976D01*
X10031595Y-8272928D02*
X10041119Y-8282452D01*
X10031595Y-8291976D01*
X10022071Y-8282452D01*
X10031595Y-8272928D01*
X10031595Y-8291976D01*
X10136357Y-8291976D02*
X10174452Y-8291976D01*
X10193500Y-8282452D01*
X10203024Y-8272928D01*
X10222071Y-8244357D01*
X10231595Y-8206262D01*
X10231595Y-8130071D01*
X10222071Y-8111024D01*
X10212548Y-8101500D01*
X10193500Y-8091976D01*
X10155405Y-8091976D01*
X10136357Y-8101500D01*
X10126833Y-8111024D01*
X10117310Y-8130071D01*
X10117310Y-8177690D01*
X10126833Y-8196738D01*
X10136357Y-8206262D01*
X10155405Y-8215786D01*
X10193500Y-8215786D01*
X10212548Y-8206262D01*
X10222071Y-8196738D01*
X10231595Y-8177690D01*
X10326833Y-8291976D02*
X10364929Y-8291976D01*
X10383976Y-8282452D01*
X10393500Y-8272928D01*
X10412548Y-8244357D01*
X10422071Y-8206262D01*
X10422071Y-8130071D01*
X10412548Y-8111024D01*
X10403024Y-8101500D01*
X10383976Y-8091976D01*
X10345881Y-8091976D01*
X10326833Y-8101500D01*
X10317310Y-8111024D01*
X10307786Y-8130071D01*
X10307786Y-8177690D01*
X10317310Y-8196738D01*
X10326833Y-8206262D01*
X10345881Y-8215786D01*
X10383976Y-8215786D01*
X10403024Y-8206262D01*
X10412548Y-8196738D01*
X10422071Y-8177690D01*
X10612548Y-8291976D02*
X10498262Y-8291976D01*
X10555405Y-8291976D02*
X10555405Y-8091976D01*
X10536357Y-8120548D01*
X10517310Y-8139595D01*
X10498262Y-8149119D01*
X10698262Y-8291976D02*
X10698262Y-8158643D01*
X10698262Y-8177690D02*
X10707786Y-8168167D01*
X10726833Y-8158643D01*
X10755405Y-8158643D01*
X10774452Y-8168167D01*
X10783976Y-8187214D01*
X10783976Y-8291976D01*
X10783976Y-8187214D02*
X10793500Y-8168167D01*
X10812548Y-8158643D01*
X10841119Y-8158643D01*
X10860167Y-8168167D01*
X10869690Y-8187214D01*
X10869690Y-8291976D01*
X10964929Y-8291976D02*
X10964929Y-8158643D01*
X10964929Y-8177690D02*
X10974452Y-8168167D01*
X10993500Y-8158643D01*
X11022071Y-8158643D01*
X11041119Y-8168167D01*
X11050643Y-8187214D01*
X11050643Y-8291976D01*
X11050643Y-8187214D02*
X11060167Y-8168167D01*
X11079214Y-8158643D01*
X11107786Y-8158643D01*
X11126833Y-8168167D01*
X11136357Y-8187214D01*
X11136357Y-8291976D01*
X11526833Y-8082452D02*
X11355405Y-8339595D01*
X11783976Y-8091976D02*
X11803024Y-8091976D01*
X11822071Y-8101500D01*
X11831595Y-8111024D01*
X11841119Y-8130071D01*
X11850643Y-8168167D01*
X11850643Y-8215786D01*
X11841119Y-8253881D01*
X11831595Y-8272928D01*
X11822071Y-8282452D01*
X11803024Y-8291976D01*
X11783976Y-8291976D01*
X11764928Y-8282452D01*
X11755405Y-8272928D01*
X11745881Y-8253881D01*
X11736357Y-8215786D01*
X11736357Y-8168167D01*
X11745881Y-8130071D01*
X11755405Y-8111024D01*
X11764928Y-8101500D01*
X11783976Y-8091976D01*
X11936357Y-8272928D02*
X11945881Y-8282452D01*
X11936357Y-8291976D01*
X11926833Y-8282452D01*
X11936357Y-8272928D01*
X11936357Y-8291976D01*
X12069690Y-8091976D02*
X12088738Y-8091976D01*
X12107786Y-8101500D01*
X12117309Y-8111024D01*
X12126833Y-8130071D01*
X12136357Y-8168167D01*
X12136357Y-8215786D01*
X12126833Y-8253881D01*
X12117309Y-8272928D01*
X12107786Y-8282452D01*
X12088738Y-8291976D01*
X12069690Y-8291976D01*
X12050643Y-8282452D01*
X12041119Y-8272928D01*
X12031595Y-8253881D01*
X12022071Y-8215786D01*
X12022071Y-8168167D01*
X12031595Y-8130071D01*
X12041119Y-8111024D01*
X12050643Y-8101500D01*
X12069690Y-8091976D01*
X12203024Y-8091976D02*
X12326833Y-8091976D01*
X12260167Y-8168167D01*
X12288738Y-8168167D01*
X12307786Y-8177690D01*
X12317309Y-8187214D01*
X12326833Y-8206262D01*
X12326833Y-8253881D01*
X12317309Y-8272928D01*
X12307786Y-8282452D01*
X12288738Y-8291976D01*
X12231595Y-8291976D01*
X12212548Y-8282452D01*
X12203024Y-8272928D01*
X12422071Y-8291976D02*
X12460167Y-8291976D01*
X12479214Y-8282452D01*
X12488738Y-8272928D01*
X12507786Y-8244357D01*
X12517309Y-8206262D01*
X12517309Y-8130071D01*
X12507786Y-8111024D01*
X12498262Y-8101500D01*
X12479214Y-8091976D01*
X12441119Y-8091976D01*
X12422071Y-8101500D01*
X12412548Y-8111024D01*
X12403024Y-8130071D01*
X12403024Y-8177690D01*
X12412548Y-8196738D01*
X12422071Y-8206262D01*
X12441119Y-8215786D01*
X12479214Y-8215786D01*
X12498262Y-8206262D01*
X12507786Y-8196738D01*
X12517309Y-8177690D01*
X12641119Y-8091976D02*
X12660167Y-8091976D01*
X12679214Y-8101500D01*
X12688738Y-8111024D01*
X12698262Y-8130071D01*
X12707786Y-8168167D01*
X12707786Y-8215786D01*
X12698262Y-8253881D01*
X12688738Y-8272928D01*
X12679214Y-8282452D01*
X12660167Y-8291976D01*
X12641119Y-8291976D01*
X12622071Y-8282452D01*
X12612548Y-8272928D01*
X12603024Y-8253881D01*
X12593500Y-8215786D01*
X12593500Y-8168167D01*
X12603024Y-8130071D01*
X12612548Y-8111024D01*
X12622071Y-8101500D01*
X12641119Y-8091976D01*
X12783976Y-8091976D02*
X12783976Y-8130071D01*
X12860167Y-8091976D02*
X12860167Y-8130071D01*
X13155405Y-8368167D02*
X13145881Y-8358643D01*
X13126833Y-8330071D01*
X13117309Y-8311024D01*
X13107786Y-8282452D01*
X13098262Y-8234833D01*
X13098262Y-8196738D01*
X13107786Y-8149119D01*
X13117309Y-8120548D01*
X13126833Y-8101500D01*
X13145881Y-8072928D01*
X13155405Y-8063405D01*
X13222071Y-8111024D02*
X13231595Y-8101500D01*
X13250643Y-8091976D01*
X13298262Y-8091976D01*
X13317309Y-8101500D01*
X13326833Y-8111024D01*
X13336357Y-8130071D01*
X13336357Y-8149119D01*
X13326833Y-8177690D01*
X13212548Y-8291976D01*
X13336357Y-8291976D01*
X13574452Y-8291976D02*
X13574452Y-8091976D01*
X13660167Y-8291976D02*
X13660167Y-8187214D01*
X13650643Y-8168167D01*
X13631595Y-8158643D01*
X13603024Y-8158643D01*
X13583976Y-8168167D01*
X13574452Y-8177690D01*
X13783976Y-8291976D02*
X13764928Y-8282452D01*
X13755405Y-8272928D01*
X13745881Y-8253881D01*
X13745881Y-8196738D01*
X13755405Y-8177690D01*
X13764928Y-8168167D01*
X13783976Y-8158643D01*
X13812548Y-8158643D01*
X13831595Y-8168167D01*
X13841119Y-8177690D01*
X13850643Y-8196738D01*
X13850643Y-8253881D01*
X13841119Y-8272928D01*
X13831595Y-8282452D01*
X13812548Y-8291976D01*
X13783976Y-8291976D01*
X13964928Y-8291976D02*
X13945881Y-8282452D01*
X13936357Y-8263405D01*
X13936357Y-8091976D01*
X14117309Y-8282452D02*
X14098262Y-8291976D01*
X14060167Y-8291976D01*
X14041119Y-8282452D01*
X14031595Y-8263405D01*
X14031595Y-8187214D01*
X14041119Y-8168167D01*
X14060167Y-8158643D01*
X14098262Y-8158643D01*
X14117309Y-8168167D01*
X14126833Y-8187214D01*
X14126833Y-8206262D01*
X14031595Y-8225309D01*
X14203024Y-8282452D02*
X14222071Y-8291976D01*
X14260167Y-8291976D01*
X14279214Y-8282452D01*
X14288738Y-8263405D01*
X14288738Y-8253881D01*
X14279214Y-8234833D01*
X14260167Y-8225309D01*
X14231595Y-8225309D01*
X14212548Y-8215786D01*
X14203024Y-8196738D01*
X14203024Y-8187214D01*
X14212548Y-8168167D01*
X14231595Y-8158643D01*
X14260167Y-8158643D01*
X14279214Y-8168167D01*
X14355405Y-8368167D02*
X14364928Y-8358643D01*
X14383976Y-8330071D01*
X14393500Y-8311024D01*
X14403024Y-8282452D01*
X14412548Y-8234833D01*
X14412548Y-8196738D01*
X14403024Y-8149119D01*
X14393500Y-8120548D01*
X14383976Y-8101500D01*
X14364928Y-8072928D01*
X14355405Y-8063405D01*
D13*
X9583500Y-8465500D02*
G75*
G03*
X9583500Y-8465500I-50000J0D01*
G01*
D11*
X9945881Y-8555976D02*
X9831595Y-8555976D01*
X9888738Y-8555976D02*
X9888738Y-8355976D01*
X9869690Y-8384548D01*
X9850643Y-8403595D01*
X9831595Y-8413119D01*
X10031595Y-8536929D02*
X10041119Y-8546452D01*
X10031595Y-8555976D01*
X10022071Y-8546452D01*
X10031595Y-8536929D01*
X10031595Y-8555976D01*
X10164929Y-8355976D02*
X10183976Y-8355976D01*
X10203024Y-8365500D01*
X10212548Y-8375024D01*
X10222071Y-8394071D01*
X10231595Y-8432167D01*
X10231595Y-8479786D01*
X10222071Y-8517881D01*
X10212548Y-8536929D01*
X10203024Y-8546452D01*
X10183976Y-8555976D01*
X10164929Y-8555976D01*
X10145881Y-8546452D01*
X10136357Y-8536929D01*
X10126833Y-8517881D01*
X10117310Y-8479786D01*
X10117310Y-8432167D01*
X10126833Y-8394071D01*
X10136357Y-8375024D01*
X10145881Y-8365500D01*
X10164929Y-8355976D01*
X10355405Y-8355976D02*
X10374452Y-8355976D01*
X10393500Y-8365500D01*
X10403024Y-8375024D01*
X10412548Y-8394071D01*
X10422071Y-8432167D01*
X10422071Y-8479786D01*
X10412548Y-8517881D01*
X10403024Y-8536929D01*
X10393500Y-8546452D01*
X10374452Y-8555976D01*
X10355405Y-8555976D01*
X10336357Y-8546452D01*
X10326833Y-8536929D01*
X10317310Y-8517881D01*
X10307786Y-8479786D01*
X10307786Y-8432167D01*
X10317310Y-8394071D01*
X10326833Y-8375024D01*
X10336357Y-8365500D01*
X10355405Y-8355976D01*
X10545881Y-8355976D02*
X10564929Y-8355976D01*
X10583976Y-8365500D01*
X10593500Y-8375024D01*
X10603024Y-8394071D01*
X10612548Y-8432167D01*
X10612548Y-8479786D01*
X10603024Y-8517881D01*
X10593500Y-8536929D01*
X10583976Y-8546452D01*
X10564929Y-8555976D01*
X10545881Y-8555976D01*
X10526833Y-8546452D01*
X10517310Y-8536929D01*
X10507786Y-8517881D01*
X10498262Y-8479786D01*
X10498262Y-8432167D01*
X10507786Y-8394071D01*
X10517310Y-8375024D01*
X10526833Y-8365500D01*
X10545881Y-8355976D01*
X10698262Y-8555976D02*
X10698262Y-8422643D01*
X10698262Y-8441690D02*
X10707786Y-8432167D01*
X10726833Y-8422643D01*
X10755405Y-8422643D01*
X10774452Y-8432167D01*
X10783976Y-8451214D01*
X10783976Y-8555976D01*
X10783976Y-8451214D02*
X10793500Y-8432167D01*
X10812548Y-8422643D01*
X10841119Y-8422643D01*
X10860167Y-8432167D01*
X10869690Y-8451214D01*
X10869690Y-8555976D01*
X10964929Y-8555976D02*
X10964929Y-8422643D01*
X10964929Y-8441690D02*
X10974452Y-8432167D01*
X10993500Y-8422643D01*
X11022071Y-8422643D01*
X11041119Y-8432167D01*
X11050643Y-8451214D01*
X11050643Y-8555976D01*
X11050643Y-8451214D02*
X11060167Y-8432167D01*
X11079214Y-8422643D01*
X11107786Y-8422643D01*
X11126833Y-8432167D01*
X11136357Y-8451214D01*
X11136357Y-8555976D01*
X11526833Y-8346452D02*
X11355405Y-8603595D01*
X11783976Y-8355976D02*
X11803024Y-8355976D01*
X11822071Y-8365500D01*
X11831595Y-8375024D01*
X11841119Y-8394071D01*
X11850643Y-8432167D01*
X11850643Y-8479786D01*
X11841119Y-8517881D01*
X11831595Y-8536929D01*
X11822071Y-8546452D01*
X11803024Y-8555976D01*
X11783976Y-8555976D01*
X11764928Y-8546452D01*
X11755405Y-8536929D01*
X11745881Y-8517881D01*
X11736357Y-8479786D01*
X11736357Y-8432167D01*
X11745881Y-8394071D01*
X11755405Y-8375024D01*
X11764928Y-8365500D01*
X11783976Y-8355976D01*
X11936357Y-8536929D02*
X11945881Y-8546452D01*
X11936357Y-8555976D01*
X11926833Y-8546452D01*
X11936357Y-8536929D01*
X11936357Y-8555976D01*
X12069690Y-8355976D02*
X12088738Y-8355976D01*
X12107786Y-8365500D01*
X12117309Y-8375024D01*
X12126833Y-8394071D01*
X12136357Y-8432167D01*
X12136357Y-8479786D01*
X12126833Y-8517881D01*
X12117309Y-8536929D01*
X12107786Y-8546452D01*
X12088738Y-8555976D01*
X12069690Y-8555976D01*
X12050643Y-8546452D01*
X12041119Y-8536929D01*
X12031595Y-8517881D01*
X12022071Y-8479786D01*
X12022071Y-8432167D01*
X12031595Y-8394071D01*
X12041119Y-8375024D01*
X12050643Y-8365500D01*
X12069690Y-8355976D01*
X12203024Y-8355976D02*
X12326833Y-8355976D01*
X12260167Y-8432167D01*
X12288738Y-8432167D01*
X12307786Y-8441690D01*
X12317309Y-8451214D01*
X12326833Y-8470262D01*
X12326833Y-8517881D01*
X12317309Y-8536929D01*
X12307786Y-8546452D01*
X12288738Y-8555976D01*
X12231595Y-8555976D01*
X12212548Y-8546452D01*
X12203024Y-8536929D01*
X12422071Y-8555976D02*
X12460167Y-8555976D01*
X12479214Y-8546452D01*
X12488738Y-8536929D01*
X12507786Y-8508357D01*
X12517309Y-8470262D01*
X12517309Y-8394071D01*
X12507786Y-8375024D01*
X12498262Y-8365500D01*
X12479214Y-8355976D01*
X12441119Y-8355976D01*
X12422071Y-8365500D01*
X12412548Y-8375024D01*
X12403024Y-8394071D01*
X12403024Y-8441690D01*
X12412548Y-8460738D01*
X12422071Y-8470262D01*
X12441119Y-8479786D01*
X12479214Y-8479786D01*
X12498262Y-8470262D01*
X12507786Y-8460738D01*
X12517309Y-8441690D01*
X12688738Y-8422643D02*
X12688738Y-8555976D01*
X12641119Y-8346452D02*
X12593500Y-8489310D01*
X12717309Y-8489310D01*
X12783976Y-8355976D02*
X12783976Y-8394071D01*
X12860167Y-8355976D02*
X12860167Y-8394071D01*
X13155405Y-8632167D02*
X13145881Y-8622643D01*
X13126833Y-8594071D01*
X13117309Y-8575024D01*
X13107786Y-8546452D01*
X13098262Y-8498833D01*
X13098262Y-8460738D01*
X13107786Y-8413119D01*
X13117309Y-8384548D01*
X13126833Y-8365500D01*
X13145881Y-8336928D01*
X13155405Y-8327405D01*
X13326833Y-8355976D02*
X13231595Y-8355976D01*
X13222071Y-8451214D01*
X13231595Y-8441690D01*
X13250643Y-8432167D01*
X13298262Y-8432167D01*
X13317309Y-8441690D01*
X13326833Y-8451214D01*
X13336357Y-8470262D01*
X13336357Y-8517881D01*
X13326833Y-8536929D01*
X13317309Y-8546452D01*
X13298262Y-8555976D01*
X13250643Y-8555976D01*
X13231595Y-8546452D01*
X13222071Y-8536929D01*
X13574452Y-8555976D02*
X13574452Y-8355976D01*
X13660167Y-8555976D02*
X13660167Y-8451214D01*
X13650643Y-8432167D01*
X13631595Y-8422643D01*
X13603024Y-8422643D01*
X13583976Y-8432167D01*
X13574452Y-8441690D01*
X13783976Y-8555976D02*
X13764928Y-8546452D01*
X13755405Y-8536929D01*
X13745881Y-8517881D01*
X13745881Y-8460738D01*
X13755405Y-8441690D01*
X13764928Y-8432167D01*
X13783976Y-8422643D01*
X13812548Y-8422643D01*
X13831595Y-8432167D01*
X13841119Y-8441690D01*
X13850643Y-8460738D01*
X13850643Y-8517881D01*
X13841119Y-8536929D01*
X13831595Y-8546452D01*
X13812548Y-8555976D01*
X13783976Y-8555976D01*
X13964928Y-8555976D02*
X13945881Y-8546452D01*
X13936357Y-8527405D01*
X13936357Y-8355976D01*
X14117309Y-8546452D02*
X14098262Y-8555976D01*
X14060167Y-8555976D01*
X14041119Y-8546452D01*
X14031595Y-8527405D01*
X14031595Y-8451214D01*
X14041119Y-8432167D01*
X14060167Y-8422643D01*
X14098262Y-8422643D01*
X14117309Y-8432167D01*
X14126833Y-8451214D01*
X14126833Y-8470262D01*
X14031595Y-8489310D01*
X14203024Y-8546452D02*
X14222071Y-8555976D01*
X14260167Y-8555976D01*
X14279214Y-8546452D01*
X14288738Y-8527405D01*
X14288738Y-8517881D01*
X14279214Y-8498833D01*
X14260167Y-8489310D01*
X14231595Y-8489310D01*
X14212548Y-8479786D01*
X14203024Y-8460738D01*
X14203024Y-8451214D01*
X14212548Y-8432167D01*
X14231595Y-8422643D01*
X14260167Y-8422643D01*
X14279214Y-8432167D01*
X14355405Y-8632167D02*
X14364928Y-8622643D01*
X14383976Y-8594071D01*
X14393500Y-8575024D01*
X14403024Y-8546452D01*
X14412548Y-8498833D01*
X14412548Y-8460738D01*
X14403024Y-8413119D01*
X14393500Y-8384548D01*
X14383976Y-8365500D01*
X14364928Y-8336928D01*
X14355405Y-8327405D01*
D14*
X9528500Y-8674500D02*
X9528500Y-8784500D01*
X9473500Y-8729500D02*
X9583500Y-8729500D01*
D11*
X9945881Y-8819976D02*
X9831595Y-8819976D01*
X9888738Y-8819976D02*
X9888738Y-8619976D01*
X9869690Y-8648548D01*
X9850643Y-8667595D01*
X9831595Y-8677119D01*
X10031595Y-8800929D02*
X10041119Y-8810452D01*
X10031595Y-8819976D01*
X10022071Y-8810452D01*
X10031595Y-8800929D01*
X10031595Y-8819976D01*
X10231595Y-8819976D02*
X10117310Y-8819976D01*
X10174452Y-8819976D02*
X10174452Y-8619976D01*
X10155405Y-8648548D01*
X10136357Y-8667595D01*
X10117310Y-8677119D01*
X10355405Y-8619976D02*
X10374452Y-8619976D01*
X10393500Y-8629500D01*
X10403024Y-8639024D01*
X10412548Y-8658071D01*
X10422071Y-8696167D01*
X10422071Y-8743786D01*
X10412548Y-8781881D01*
X10403024Y-8800929D01*
X10393500Y-8810452D01*
X10374452Y-8819976D01*
X10355405Y-8819976D01*
X10336357Y-8810452D01*
X10326833Y-8800929D01*
X10317310Y-8781881D01*
X10307786Y-8743786D01*
X10307786Y-8696167D01*
X10317310Y-8658071D01*
X10326833Y-8639024D01*
X10336357Y-8629500D01*
X10355405Y-8619976D01*
X10545881Y-8619976D02*
X10564929Y-8619976D01*
X10583976Y-8629500D01*
X10593500Y-8639024D01*
X10603024Y-8658071D01*
X10612548Y-8696167D01*
X10612548Y-8743786D01*
X10603024Y-8781881D01*
X10593500Y-8800929D01*
X10583976Y-8810452D01*
X10564929Y-8819976D01*
X10545881Y-8819976D01*
X10526833Y-8810452D01*
X10517310Y-8800929D01*
X10507786Y-8781881D01*
X10498262Y-8743786D01*
X10498262Y-8696167D01*
X10507786Y-8658071D01*
X10517310Y-8639024D01*
X10526833Y-8629500D01*
X10545881Y-8619976D01*
X10698262Y-8819976D02*
X10698262Y-8686643D01*
X10698262Y-8705690D02*
X10707786Y-8696167D01*
X10726833Y-8686643D01*
X10755405Y-8686643D01*
X10774452Y-8696167D01*
X10783976Y-8715214D01*
X10783976Y-8819976D01*
X10783976Y-8715214D02*
X10793500Y-8696167D01*
X10812548Y-8686643D01*
X10841119Y-8686643D01*
X10860167Y-8696167D01*
X10869690Y-8715214D01*
X10869690Y-8819976D01*
X10964929Y-8819976D02*
X10964929Y-8686643D01*
X10964929Y-8705690D02*
X10974452Y-8696167D01*
X10993500Y-8686643D01*
X11022071Y-8686643D01*
X11041119Y-8696167D01*
X11050643Y-8715214D01*
X11050643Y-8819976D01*
X11050643Y-8715214D02*
X11060167Y-8696167D01*
X11079214Y-8686643D01*
X11107786Y-8686643D01*
X11126833Y-8696167D01*
X11136357Y-8715214D01*
X11136357Y-8819976D01*
X11526833Y-8610452D02*
X11355405Y-8867595D01*
X11783976Y-8619976D02*
X11803024Y-8619976D01*
X11822071Y-8629500D01*
X11831595Y-8639024D01*
X11841119Y-8658071D01*
X11850643Y-8696167D01*
X11850643Y-8743786D01*
X11841119Y-8781881D01*
X11831595Y-8800929D01*
X11822071Y-8810452D01*
X11803024Y-8819976D01*
X11783976Y-8819976D01*
X11764928Y-8810452D01*
X11755405Y-8800929D01*
X11745881Y-8781881D01*
X11736357Y-8743786D01*
X11736357Y-8696167D01*
X11745881Y-8658071D01*
X11755405Y-8639024D01*
X11764928Y-8629500D01*
X11783976Y-8619976D01*
X11936357Y-8800929D02*
X11945881Y-8810452D01*
X11936357Y-8819976D01*
X11926833Y-8810452D01*
X11936357Y-8800929D01*
X11936357Y-8819976D01*
X12069690Y-8619976D02*
X12088738Y-8619976D01*
X12107786Y-8629500D01*
X12117309Y-8639024D01*
X12126833Y-8658071D01*
X12136357Y-8696167D01*
X12136357Y-8743786D01*
X12126833Y-8781881D01*
X12117309Y-8800929D01*
X12107786Y-8810452D01*
X12088738Y-8819976D01*
X12069690Y-8819976D01*
X12050643Y-8810452D01*
X12041119Y-8800929D01*
X12031595Y-8781881D01*
X12022071Y-8743786D01*
X12022071Y-8696167D01*
X12031595Y-8658071D01*
X12041119Y-8639024D01*
X12050643Y-8629500D01*
X12069690Y-8619976D01*
X12307786Y-8686643D02*
X12307786Y-8819976D01*
X12260167Y-8610452D02*
X12212548Y-8753310D01*
X12336357Y-8753310D01*
X12393500Y-8619976D02*
X12517309Y-8619976D01*
X12450643Y-8696167D01*
X12479214Y-8696167D01*
X12498262Y-8705690D01*
X12507786Y-8715214D01*
X12517309Y-8734262D01*
X12517309Y-8781881D01*
X12507786Y-8800929D01*
X12498262Y-8810452D01*
X12479214Y-8819976D01*
X12422071Y-8819976D01*
X12403024Y-8810452D01*
X12393500Y-8800929D01*
X12583976Y-8619976D02*
X12707786Y-8619976D01*
X12641119Y-8696167D01*
X12669690Y-8696167D01*
X12688738Y-8705690D01*
X12698262Y-8715214D01*
X12707786Y-8734262D01*
X12707786Y-8781881D01*
X12698262Y-8800929D01*
X12688738Y-8810452D01*
X12669690Y-8819976D01*
X12612548Y-8819976D01*
X12593500Y-8810452D01*
X12583976Y-8800929D01*
X12783976Y-8619976D02*
X12783976Y-8658071D01*
X12860167Y-8619976D02*
X12860167Y-8658071D01*
X13155405Y-8896167D02*
X13145881Y-8886643D01*
X13126833Y-8858071D01*
X13117309Y-8839024D01*
X13107786Y-8810452D01*
X13098262Y-8762833D01*
X13098262Y-8724738D01*
X13107786Y-8677119D01*
X13117309Y-8648548D01*
X13126833Y-8629500D01*
X13145881Y-8600929D01*
X13155405Y-8591405D01*
X13326833Y-8619976D02*
X13231595Y-8619976D01*
X13222071Y-8715214D01*
X13231595Y-8705690D01*
X13250643Y-8696167D01*
X13298262Y-8696167D01*
X13317309Y-8705690D01*
X13326833Y-8715214D01*
X13336357Y-8734262D01*
X13336357Y-8781881D01*
X13326833Y-8800929D01*
X13317309Y-8810452D01*
X13298262Y-8819976D01*
X13250643Y-8819976D01*
X13231595Y-8810452D01*
X13222071Y-8800929D01*
X13574452Y-8819976D02*
X13574452Y-8619976D01*
X13660167Y-8819976D02*
X13660167Y-8715214D01*
X13650643Y-8696167D01*
X13631595Y-8686643D01*
X13603024Y-8686643D01*
X13583976Y-8696167D01*
X13574452Y-8705690D01*
X13783976Y-8819976D02*
X13764928Y-8810452D01*
X13755405Y-8800929D01*
X13745881Y-8781881D01*
X13745881Y-8724738D01*
X13755405Y-8705690D01*
X13764928Y-8696167D01*
X13783976Y-8686643D01*
X13812548Y-8686643D01*
X13831595Y-8696167D01*
X13841119Y-8705690D01*
X13850643Y-8724738D01*
X13850643Y-8781881D01*
X13841119Y-8800929D01*
X13831595Y-8810452D01*
X13812548Y-8819976D01*
X13783976Y-8819976D01*
X13964928Y-8819976D02*
X13945881Y-8810452D01*
X13936357Y-8791405D01*
X13936357Y-8619976D01*
X14117309Y-8810452D02*
X14098262Y-8819976D01*
X14060167Y-8819976D01*
X14041119Y-8810452D01*
X14031595Y-8791405D01*
X14031595Y-8715214D01*
X14041119Y-8696167D01*
X14060167Y-8686643D01*
X14098262Y-8686643D01*
X14117309Y-8696167D01*
X14126833Y-8715214D01*
X14126833Y-8734262D01*
X14031595Y-8753310D01*
X14203024Y-8810452D02*
X14222071Y-8819976D01*
X14260167Y-8819976D01*
X14279214Y-8810452D01*
X14288738Y-8791405D01*
X14288738Y-8781881D01*
X14279214Y-8762833D01*
X14260167Y-8753310D01*
X14231595Y-8753310D01*
X14212548Y-8743786D01*
X14203024Y-8724738D01*
X14203024Y-8715214D01*
X14212548Y-8696167D01*
X14231595Y-8686643D01*
X14260167Y-8686643D01*
X14279214Y-8696167D01*
X14355405Y-8896167D02*
X14364928Y-8886643D01*
X14383976Y-8858071D01*
X14393500Y-8839024D01*
X14403024Y-8810452D01*
X14412548Y-8762833D01*
X14412548Y-8724738D01*
X14403024Y-8677119D01*
X14393500Y-8648548D01*
X14383976Y-8629500D01*
X14364928Y-8600929D01*
X14355405Y-8591405D01*
X9554211Y-9064211D02*
X9554211Y-8922789D01*
X9412789Y-8922789D01*
X9412789Y-9064211D01*
X9554211Y-9064211D01*
X9831595Y-8903024D02*
X9841119Y-8893500D01*
X9860167Y-8883976D01*
X9907786Y-8883976D01*
X9926833Y-8893500D01*
X9936357Y-8903024D01*
X9945881Y-8922071D01*
X9945881Y-8941119D01*
X9936357Y-8969690D01*
X9822071Y-9083976D01*
X9945881Y-9083976D01*
X10031595Y-9064929D02*
X10041119Y-9074452D01*
X10031595Y-9083976D01*
X10022071Y-9074452D01*
X10031595Y-9064929D01*
X10031595Y-9083976D01*
X10117310Y-8903024D02*
X10126833Y-8893500D01*
X10145881Y-8883976D01*
X10193500Y-8883976D01*
X10212548Y-8893500D01*
X10222071Y-8903024D01*
X10231595Y-8922071D01*
X10231595Y-8941119D01*
X10222071Y-8969690D01*
X10107786Y-9083976D01*
X10231595Y-9083976D01*
X10355405Y-8883976D02*
X10374452Y-8883976D01*
X10393500Y-8893500D01*
X10403024Y-8903024D01*
X10412548Y-8922071D01*
X10422071Y-8960167D01*
X10422071Y-9007786D01*
X10412548Y-9045881D01*
X10403024Y-9064929D01*
X10393500Y-9074452D01*
X10374452Y-9083976D01*
X10355405Y-9083976D01*
X10336357Y-9074452D01*
X10326833Y-9064929D01*
X10317310Y-9045881D01*
X10307786Y-9007786D01*
X10307786Y-8960167D01*
X10317310Y-8922071D01*
X10326833Y-8903024D01*
X10336357Y-8893500D01*
X10355405Y-8883976D01*
X10545881Y-8883976D02*
X10564929Y-8883976D01*
X10583976Y-8893500D01*
X10593500Y-8903024D01*
X10603024Y-8922071D01*
X10612548Y-8960167D01*
X10612548Y-9007786D01*
X10603024Y-9045881D01*
X10593500Y-9064929D01*
X10583976Y-9074452D01*
X10564929Y-9083976D01*
X10545881Y-9083976D01*
X10526833Y-9074452D01*
X10517310Y-9064929D01*
X10507786Y-9045881D01*
X10498262Y-9007786D01*
X10498262Y-8960167D01*
X10507786Y-8922071D01*
X10517310Y-8903024D01*
X10526833Y-8893500D01*
X10545881Y-8883976D01*
X10698262Y-9083976D02*
X10698262Y-8950643D01*
X10698262Y-8969690D02*
X10707786Y-8960167D01*
X10726833Y-8950643D01*
X10755405Y-8950643D01*
X10774452Y-8960167D01*
X10783976Y-8979214D01*
X10783976Y-9083976D01*
X10783976Y-8979214D02*
X10793500Y-8960167D01*
X10812548Y-8950643D01*
X10841119Y-8950643D01*
X10860167Y-8960167D01*
X10869690Y-8979214D01*
X10869690Y-9083976D01*
X10964929Y-9083976D02*
X10964929Y-8950643D01*
X10964929Y-8969690D02*
X10974452Y-8960167D01*
X10993500Y-8950643D01*
X11022071Y-8950643D01*
X11041119Y-8960167D01*
X11050643Y-8979214D01*
X11050643Y-9083976D01*
X11050643Y-8979214D02*
X11060167Y-8960167D01*
X11079214Y-8950643D01*
X11107786Y-8950643D01*
X11126833Y-8960167D01*
X11136357Y-8979214D01*
X11136357Y-9083976D01*
X11526833Y-8874452D02*
X11355405Y-9131595D01*
X11783976Y-8883976D02*
X11803024Y-8883976D01*
X11822071Y-8893500D01*
X11831595Y-8903024D01*
X11841119Y-8922071D01*
X11850643Y-8960167D01*
X11850643Y-9007786D01*
X11841119Y-9045881D01*
X11831595Y-9064929D01*
X11822071Y-9074452D01*
X11803024Y-9083976D01*
X11783976Y-9083976D01*
X11764928Y-9074452D01*
X11755405Y-9064929D01*
X11745881Y-9045881D01*
X11736357Y-9007786D01*
X11736357Y-8960167D01*
X11745881Y-8922071D01*
X11755405Y-8903024D01*
X11764928Y-8893500D01*
X11783976Y-8883976D01*
X11936357Y-9064929D02*
X11945881Y-9074452D01*
X11936357Y-9083976D01*
X11926833Y-9074452D01*
X11936357Y-9064929D01*
X11936357Y-9083976D01*
X12069690Y-8883976D02*
X12088738Y-8883976D01*
X12107786Y-8893500D01*
X12117309Y-8903024D01*
X12126833Y-8922071D01*
X12136357Y-8960167D01*
X12136357Y-9007786D01*
X12126833Y-9045881D01*
X12117309Y-9064929D01*
X12107786Y-9074452D01*
X12088738Y-9083976D01*
X12069690Y-9083976D01*
X12050643Y-9074452D01*
X12041119Y-9064929D01*
X12031595Y-9045881D01*
X12022071Y-9007786D01*
X12022071Y-8960167D01*
X12031595Y-8922071D01*
X12041119Y-8903024D01*
X12050643Y-8893500D01*
X12069690Y-8883976D01*
X12250643Y-8969690D02*
X12231595Y-8960167D01*
X12222071Y-8950643D01*
X12212548Y-8931595D01*
X12212548Y-8922071D01*
X12222071Y-8903024D01*
X12231595Y-8893500D01*
X12250643Y-8883976D01*
X12288738Y-8883976D01*
X12307786Y-8893500D01*
X12317309Y-8903024D01*
X12326833Y-8922071D01*
X12326833Y-8931595D01*
X12317309Y-8950643D01*
X12307786Y-8960167D01*
X12288738Y-8969690D01*
X12250643Y-8969690D01*
X12231595Y-8979214D01*
X12222071Y-8988738D01*
X12212548Y-9007786D01*
X12212548Y-9045881D01*
X12222071Y-9064929D01*
X12231595Y-9074452D01*
X12250643Y-9083976D01*
X12288738Y-9083976D01*
X12307786Y-9074452D01*
X12317309Y-9064929D01*
X12326833Y-9045881D01*
X12326833Y-9007786D01*
X12317309Y-8988738D01*
X12307786Y-8979214D01*
X12288738Y-8969690D01*
X12498262Y-8883976D02*
X12460167Y-8883976D01*
X12441119Y-8893500D01*
X12431595Y-8903024D01*
X12412548Y-8931595D01*
X12403024Y-8969690D01*
X12403024Y-9045881D01*
X12412548Y-9064929D01*
X12422071Y-9074452D01*
X12441119Y-9083976D01*
X12479214Y-9083976D01*
X12498262Y-9074452D01*
X12507786Y-9064929D01*
X12517309Y-9045881D01*
X12517309Y-8998262D01*
X12507786Y-8979214D01*
X12498262Y-8969690D01*
X12479214Y-8960167D01*
X12441119Y-8960167D01*
X12422071Y-8969690D01*
X12412548Y-8979214D01*
X12403024Y-8998262D01*
X12688738Y-8883976D02*
X12650643Y-8883976D01*
X12631595Y-8893500D01*
X12622071Y-8903024D01*
X12603024Y-8931595D01*
X12593500Y-8969690D01*
X12593500Y-9045881D01*
X12603024Y-9064929D01*
X12612548Y-9074452D01*
X12631595Y-9083976D01*
X12669690Y-9083976D01*
X12688738Y-9074452D01*
X12698262Y-9064929D01*
X12707786Y-9045881D01*
X12707786Y-8998262D01*
X12698262Y-8979214D01*
X12688738Y-8969690D01*
X12669690Y-8960167D01*
X12631595Y-8960167D01*
X12612548Y-8969690D01*
X12603024Y-8979214D01*
X12593500Y-8998262D01*
X12783976Y-8883976D02*
X12783976Y-8922071D01*
X12860167Y-8883976D02*
X12860167Y-8922071D01*
X13155405Y-9160167D02*
X13145881Y-9150643D01*
X13126833Y-9122071D01*
X13117309Y-9103024D01*
X13107786Y-9074452D01*
X13098262Y-9026833D01*
X13098262Y-8988738D01*
X13107786Y-8941119D01*
X13117309Y-8912548D01*
X13126833Y-8893500D01*
X13145881Y-8864929D01*
X13155405Y-8855405D01*
X13222071Y-8903024D02*
X13231595Y-8893500D01*
X13250643Y-8883976D01*
X13298262Y-8883976D01*
X13317309Y-8893500D01*
X13326833Y-8903024D01*
X13336357Y-8922071D01*
X13336357Y-8941119D01*
X13326833Y-8969690D01*
X13212548Y-9083976D01*
X13336357Y-9083976D01*
X13574452Y-9083976D02*
X13574452Y-8883976D01*
X13660167Y-9083976D02*
X13660167Y-8979214D01*
X13650643Y-8960167D01*
X13631595Y-8950643D01*
X13603024Y-8950643D01*
X13583976Y-8960167D01*
X13574452Y-8969690D01*
X13783976Y-9083976D02*
X13764928Y-9074452D01*
X13755405Y-9064929D01*
X13745881Y-9045881D01*
X13745881Y-8988738D01*
X13755405Y-8969690D01*
X13764928Y-8960167D01*
X13783976Y-8950643D01*
X13812548Y-8950643D01*
X13831595Y-8960167D01*
X13841119Y-8969690D01*
X13850643Y-8988738D01*
X13850643Y-9045881D01*
X13841119Y-9064929D01*
X13831595Y-9074452D01*
X13812548Y-9083976D01*
X13783976Y-9083976D01*
X13964928Y-9083976D02*
X13945881Y-9074452D01*
X13936357Y-9055405D01*
X13936357Y-8883976D01*
X14117309Y-9074452D02*
X14098262Y-9083976D01*
X14060167Y-9083976D01*
X14041119Y-9074452D01*
X14031595Y-9055405D01*
X14031595Y-8979214D01*
X14041119Y-8960167D01*
X14060167Y-8950643D01*
X14098262Y-8950643D01*
X14117309Y-8960167D01*
X14126833Y-8979214D01*
X14126833Y-8998262D01*
X14031595Y-9017310D01*
X14203024Y-9074452D02*
X14222071Y-9083976D01*
X14260167Y-9083976D01*
X14279214Y-9074452D01*
X14288738Y-9055405D01*
X14288738Y-9045881D01*
X14279214Y-9026833D01*
X14260167Y-9017310D01*
X14231595Y-9017310D01*
X14212548Y-9007786D01*
X14203024Y-8988738D01*
X14203024Y-8979214D01*
X14212548Y-8960167D01*
X14231595Y-8950643D01*
X14260167Y-8950643D01*
X14279214Y-8960167D01*
X14355405Y-9160167D02*
X14364928Y-9150643D01*
X14383976Y-9122071D01*
X14393500Y-9103024D01*
X14403024Y-9074452D01*
X14412548Y-9026833D01*
X14412548Y-8988738D01*
X14403024Y-8941119D01*
X14393500Y-8912548D01*
X14383976Y-8893500D01*
X14364928Y-8864929D01*
X14355405Y-8855405D01*
M02*
