G04 #@! TF.GenerationSoftware,KiCad,Pcbnew,(6.0.1-0)*
G04 #@! TF.CreationDate,2022-06-21T09:38:52-07:00*
G04 #@! TF.ProjectId,TapTap,54617054-6170-42e6-9b69-6361645f7063,rev?*
G04 #@! TF.SameCoordinates,Original*
G04 #@! TF.FileFunction,Copper,L2,Bot*
G04 #@! TF.FilePolarity,Positive*
%FSLAX46Y46*%
G04 Gerber Fmt 4.6, Leading zero omitted, Abs format (unit mm)*
G04 Created by KiCad (PCBNEW (6.0.1-0)) date 2022-06-21 09:38:52*
%MOMM*%
%LPD*%
G01*
G04 APERTURE LIST*
G04 #@! TA.AperFunction,ComponentPad*
%ADD10R,1.700000X1.700000*%
G04 #@! TD*
G04 #@! TA.AperFunction,ComponentPad*
%ADD11O,1.700000X1.700000*%
G04 #@! TD*
G04 #@! TA.AperFunction,ComponentPad*
%ADD12C,4.400000*%
G04 #@! TD*
G04 #@! TA.AperFunction,ComponentPad*
%ADD13R,2.200000X2.200000*%
G04 #@! TD*
G04 #@! TA.AperFunction,ComponentPad*
%ADD14O,2.200000X2.200000*%
G04 #@! TD*
G04 #@! TA.AperFunction,ComponentPad*
%ADD15R,1.905000X2.000000*%
G04 #@! TD*
G04 #@! TA.AperFunction,ComponentPad*
%ADD16O,1.905000X2.000000*%
G04 #@! TD*
G04 #@! TA.AperFunction,ComponentPad*
%ADD17C,1.651000*%
G04 #@! TD*
G04 #@! TA.AperFunction,Conductor*
%ADD18C,0.381000*%
G04 #@! TD*
G04 APERTURE END LIST*
D10*
X113284000Y-63749000D03*
D11*
X113284000Y-66289000D03*
D12*
X112776000Y-71755000D03*
D13*
X98552000Y-62992000D03*
D14*
X108712000Y-62992000D03*
D10*
X101092000Y-72136000D03*
D11*
X103632000Y-72136000D03*
X106172000Y-72136000D03*
D12*
X112776000Y-57912000D03*
D15*
X101092000Y-58095000D03*
D16*
X103632000Y-58095000D03*
X106172000Y-58095000D03*
D17*
X98552000Y-67564000D03*
X108712000Y-67564000D03*
D18*
X106939000Y-66289000D02*
X101092000Y-72136000D01*
X113284000Y-66289000D02*
X106939000Y-66289000D01*
X101092000Y-65532000D02*
X98552000Y-62992000D01*
X101092000Y-72136000D02*
X101092000Y-65532000D01*
G04 #@! TA.AperFunction,Conductor*
G36*
X126843057Y-54865500D02*
G01*
X126857858Y-54867805D01*
X126857861Y-54867805D01*
X126866730Y-54869186D01*
X126875631Y-54868022D01*
X126875635Y-54868022D01*
X126879379Y-54867532D01*
X126906693Y-54866948D01*
X126987258Y-54873996D01*
X127038449Y-54878475D01*
X127060070Y-54882287D01*
X127209848Y-54922420D01*
X127230484Y-54929931D01*
X127371010Y-54995460D01*
X127390030Y-55006442D01*
X127517046Y-55095379D01*
X127533871Y-55109497D01*
X127643503Y-55219129D01*
X127657621Y-55235954D01*
X127746558Y-55362970D01*
X127757540Y-55381990D01*
X127823069Y-55522516D01*
X127830580Y-55543152D01*
X127870713Y-55692930D01*
X127874526Y-55714555D01*
X127885449Y-55839419D01*
X127884897Y-55855879D01*
X127885305Y-55855884D01*
X127885195Y-55864858D01*
X127883814Y-55873730D01*
X127884978Y-55882632D01*
X127884978Y-55882635D01*
X127887936Y-55905251D01*
X127889000Y-55921589D01*
X127889000Y-73991672D01*
X127887500Y-74011056D01*
X127883814Y-74034730D01*
X127884978Y-74043631D01*
X127884978Y-74043635D01*
X127885468Y-74047379D01*
X127886052Y-74074693D01*
X127880231Y-74141234D01*
X127876917Y-74179119D01*
X127874526Y-74206446D01*
X127870713Y-74228070D01*
X127849618Y-74306798D01*
X127830581Y-74377846D01*
X127823069Y-74398484D01*
X127757540Y-74539010D01*
X127746558Y-74558030D01*
X127657621Y-74685046D01*
X127643503Y-74701871D01*
X127533871Y-74811503D01*
X127517046Y-74825621D01*
X127390030Y-74914558D01*
X127371010Y-74925540D01*
X127230484Y-74991069D01*
X127209848Y-74998580D01*
X127060070Y-75038713D01*
X127038448Y-75042526D01*
X127000929Y-75045808D01*
X126913581Y-75053449D01*
X126897121Y-75052897D01*
X126897116Y-75053305D01*
X126888142Y-75053195D01*
X126879270Y-75051814D01*
X126870368Y-75052978D01*
X126870365Y-75052978D01*
X126847749Y-75055936D01*
X126831411Y-75057000D01*
X97458328Y-75057000D01*
X97438943Y-75055500D01*
X97424142Y-75053195D01*
X97424139Y-75053195D01*
X97415270Y-75051814D01*
X97406369Y-75052978D01*
X97406365Y-75052978D01*
X97402621Y-75053468D01*
X97375307Y-75054052D01*
X97294742Y-75047004D01*
X97243551Y-75042525D01*
X97221930Y-75038713D01*
X97072152Y-74998580D01*
X97051516Y-74991069D01*
X96910990Y-74925540D01*
X96891970Y-74914558D01*
X96764954Y-74825621D01*
X96748129Y-74811503D01*
X96638497Y-74701871D01*
X96624379Y-74685046D01*
X96535442Y-74558030D01*
X96524460Y-74539010D01*
X96458931Y-74398484D01*
X96451419Y-74377846D01*
X96432382Y-74306798D01*
X96411287Y-74228070D01*
X96407474Y-74206445D01*
X96396551Y-74081581D01*
X96397103Y-74065121D01*
X96396695Y-74065116D01*
X96396805Y-74056142D01*
X96398186Y-74047270D01*
X96396547Y-74034730D01*
X96394064Y-74015749D01*
X96393000Y-73999411D01*
X96393000Y-67564000D01*
X97212904Y-67564000D01*
X97233248Y-67796532D01*
X97293661Y-68021998D01*
X97295983Y-68026978D01*
X97295984Y-68026980D01*
X97389983Y-68228561D01*
X97389986Y-68228566D01*
X97392309Y-68233548D01*
X97395465Y-68238055D01*
X97395466Y-68238057D01*
X97482933Y-68362972D01*
X97526193Y-68424754D01*
X97691246Y-68589807D01*
X97695754Y-68592964D01*
X97695757Y-68592966D01*
X97699075Y-68595289D01*
X97882452Y-68723691D01*
X97887434Y-68726014D01*
X97887439Y-68726017D01*
X98089020Y-68820016D01*
X98094002Y-68822339D01*
X98099310Y-68823761D01*
X98099312Y-68823762D01*
X98314153Y-68881328D01*
X98314155Y-68881328D01*
X98319468Y-68882752D01*
X98552000Y-68903096D01*
X98784532Y-68882752D01*
X98789845Y-68881328D01*
X98789847Y-68881328D01*
X99004688Y-68823762D01*
X99004690Y-68823761D01*
X99009998Y-68822339D01*
X99014980Y-68820016D01*
X99216561Y-68726017D01*
X99216566Y-68726014D01*
X99221548Y-68723691D01*
X99404925Y-68595289D01*
X99408243Y-68592966D01*
X99408246Y-68592964D01*
X99412754Y-68589807D01*
X99577807Y-68424754D01*
X99621068Y-68362972D01*
X99708534Y-68238057D01*
X99708535Y-68238055D01*
X99711691Y-68233548D01*
X99714014Y-68228566D01*
X99714017Y-68228561D01*
X99808016Y-68026980D01*
X99808017Y-68026978D01*
X99810339Y-68021998D01*
X99870752Y-67796532D01*
X99891096Y-67564000D01*
X99870752Y-67331468D01*
X99851343Y-67259031D01*
X99811762Y-67111312D01*
X99811761Y-67111310D01*
X99810339Y-67106002D01*
X99806603Y-67097990D01*
X99714017Y-66899439D01*
X99714014Y-66899434D01*
X99711691Y-66894452D01*
X99577807Y-66703246D01*
X99412754Y-66538193D01*
X99408246Y-66535036D01*
X99408243Y-66535034D01*
X99226057Y-66407466D01*
X99226055Y-66407465D01*
X99221548Y-66404309D01*
X99216566Y-66401986D01*
X99216561Y-66401983D01*
X99014980Y-66307984D01*
X99014978Y-66307983D01*
X99009998Y-66305661D01*
X99004690Y-66304239D01*
X99004688Y-66304238D01*
X98789847Y-66246672D01*
X98789845Y-66246672D01*
X98784532Y-66245248D01*
X98552000Y-66224904D01*
X98319468Y-66245248D01*
X98314155Y-66246672D01*
X98314153Y-66246672D01*
X98099312Y-66304238D01*
X98099310Y-66304239D01*
X98094002Y-66305661D01*
X98089022Y-66307983D01*
X98089020Y-66307984D01*
X97887439Y-66401983D01*
X97887434Y-66401986D01*
X97882452Y-66404309D01*
X97877945Y-66407465D01*
X97877943Y-66407466D01*
X97695757Y-66535034D01*
X97695754Y-66535036D01*
X97691246Y-66538193D01*
X97526193Y-66703246D01*
X97392309Y-66894452D01*
X97389986Y-66899434D01*
X97389983Y-66899439D01*
X97297397Y-67097990D01*
X97293661Y-67106002D01*
X97292239Y-67111310D01*
X97292238Y-67111312D01*
X97252657Y-67259031D01*
X97233248Y-67331468D01*
X97212904Y-67564000D01*
X96393000Y-67564000D01*
X96393000Y-64140134D01*
X96943500Y-64140134D01*
X96950255Y-64202316D01*
X97001385Y-64338705D01*
X97088739Y-64455261D01*
X97205295Y-64542615D01*
X97341684Y-64593745D01*
X97403866Y-64600500D01*
X99119775Y-64600500D01*
X99187896Y-64620502D01*
X99208870Y-64637405D01*
X100356095Y-65784630D01*
X100390121Y-65846942D01*
X100393000Y-65873725D01*
X100393000Y-70651500D01*
X100372998Y-70719621D01*
X100319342Y-70766114D01*
X100267000Y-70777500D01*
X100193866Y-70777500D01*
X100131684Y-70784255D01*
X99995295Y-70835385D01*
X99878739Y-70922739D01*
X99791385Y-71039295D01*
X99740255Y-71175684D01*
X99733500Y-71237866D01*
X99733500Y-73034134D01*
X99740255Y-73096316D01*
X99791385Y-73232705D01*
X99878739Y-73349261D01*
X99995295Y-73436615D01*
X100131684Y-73487745D01*
X100193866Y-73494500D01*
X101990134Y-73494500D01*
X102052316Y-73487745D01*
X102188705Y-73436615D01*
X102305261Y-73349261D01*
X102392615Y-73232705D01*
X102414799Y-73173529D01*
X102436598Y-73115382D01*
X102479240Y-73058618D01*
X102545802Y-73033918D01*
X102615150Y-73049126D01*
X102649817Y-73077114D01*
X102678250Y-73109938D01*
X102850126Y-73252632D01*
X103043000Y-73365338D01*
X103251692Y-73445030D01*
X103256760Y-73446061D01*
X103256763Y-73446062D01*
X103351862Y-73465410D01*
X103470597Y-73489567D01*
X103475772Y-73489757D01*
X103475774Y-73489757D01*
X103688673Y-73497564D01*
X103688677Y-73497564D01*
X103693837Y-73497753D01*
X103698957Y-73497097D01*
X103698959Y-73497097D01*
X103910288Y-73470025D01*
X103910289Y-73470025D01*
X103915416Y-73469368D01*
X103920366Y-73467883D01*
X104124429Y-73406661D01*
X104124434Y-73406659D01*
X104129384Y-73405174D01*
X104329994Y-73306896D01*
X104511860Y-73177173D01*
X104670096Y-73019489D01*
X104696029Y-72983400D01*
X104800453Y-72838077D01*
X104801640Y-72838930D01*
X104848960Y-72795362D01*
X104918897Y-72783145D01*
X104984338Y-72810678D01*
X105012166Y-72842511D01*
X105069694Y-72936388D01*
X105075777Y-72944699D01*
X105215213Y-73105667D01*
X105222580Y-73112883D01*
X105386434Y-73248916D01*
X105394881Y-73254831D01*
X105578756Y-73362279D01*
X105588042Y-73366729D01*
X105787001Y-73442703D01*
X105796899Y-73445579D01*
X105900250Y-73466606D01*
X105914299Y-73465410D01*
X105918000Y-73455065D01*
X105918000Y-73454517D01*
X106426000Y-73454517D01*
X106430064Y-73468359D01*
X106443478Y-73470393D01*
X106450184Y-73469534D01*
X106460262Y-73467392D01*
X106664255Y-73406191D01*
X106673842Y-73402433D01*
X106865095Y-73308739D01*
X106873945Y-73303464D01*
X107047328Y-73179792D01*
X107055200Y-73173139D01*
X107206052Y-73022812D01*
X107212730Y-73014965D01*
X107337003Y-72842020D01*
X107342313Y-72833183D01*
X107436670Y-72642267D01*
X107440469Y-72632672D01*
X107502377Y-72428910D01*
X107504555Y-72418837D01*
X107505986Y-72407962D01*
X107503775Y-72393778D01*
X107490617Y-72390000D01*
X106444115Y-72390000D01*
X106428876Y-72394475D01*
X106427671Y-72395865D01*
X106426000Y-72403548D01*
X106426000Y-73454517D01*
X105918000Y-73454517D01*
X105918000Y-71863885D01*
X106426000Y-71863885D01*
X106430475Y-71879124D01*
X106431865Y-71880329D01*
X106439548Y-71882000D01*
X107490344Y-71882000D01*
X107503875Y-71878027D01*
X107505180Y-71868947D01*
X107469421Y-71726585D01*
X110062698Y-71726585D01*
X110078936Y-72052759D01*
X110079577Y-72056490D01*
X110079578Y-72056498D01*
X110094109Y-72141060D01*
X110134241Y-72374619D01*
X110135329Y-72378258D01*
X110135330Y-72378261D01*
X110212953Y-72637811D01*
X110227814Y-72687504D01*
X110229327Y-72690975D01*
X110229329Y-72690981D01*
X110318868Y-72896416D01*
X110358297Y-72986881D01*
X110360220Y-72990152D01*
X110360222Y-72990156D01*
X110402584Y-73062215D01*
X110523802Y-73268414D01*
X110526103Y-73271429D01*
X110719631Y-73525012D01*
X110719636Y-73525017D01*
X110721931Y-73528025D01*
X110949814Y-73761953D01*
X111022635Y-73820607D01*
X111201196Y-73964431D01*
X111201201Y-73964435D01*
X111204149Y-73966809D01*
X111481253Y-74139627D01*
X111777112Y-74277903D01*
X111780721Y-74279086D01*
X112081986Y-74377846D01*
X112087440Y-74379634D01*
X112407742Y-74443346D01*
X112411514Y-74443633D01*
X112411522Y-74443634D01*
X112729602Y-74467829D01*
X112729607Y-74467829D01*
X112733379Y-74468116D01*
X113059633Y-74453586D01*
X113119425Y-74443634D01*
X113378037Y-74400590D01*
X113378042Y-74400589D01*
X113381778Y-74399967D01*
X113695149Y-74308034D01*
X113698616Y-74306544D01*
X113698620Y-74306543D01*
X113991721Y-74180616D01*
X113991723Y-74180615D01*
X113995205Y-74179119D01*
X114277601Y-74015091D01*
X114538245Y-73818324D01*
X114773363Y-73591670D01*
X114872797Y-73469534D01*
X114977155Y-73341351D01*
X114977158Y-73341347D01*
X114979549Y-73338410D01*
X115032024Y-73255242D01*
X115151788Y-73065428D01*
X115151790Y-73065425D01*
X115153815Y-73062215D01*
X115165510Y-73037531D01*
X115260004Y-72838077D01*
X115293638Y-72767084D01*
X115320188Y-72687504D01*
X115395790Y-72460897D01*
X115395792Y-72460891D01*
X115396992Y-72457293D01*
X115462381Y-72137329D01*
X115468956Y-72056498D01*
X115488674Y-71814061D01*
X115488856Y-71811826D01*
X115489451Y-71755000D01*
X115487510Y-71722796D01*
X115470026Y-71432793D01*
X115470026Y-71432789D01*
X115469798Y-71429015D01*
X115464650Y-71400824D01*
X115411805Y-71111473D01*
X115411804Y-71111469D01*
X115411125Y-71107751D01*
X115403722Y-71083907D01*
X115322084Y-70820989D01*
X115314282Y-70795863D01*
X115180670Y-70497869D01*
X115012226Y-70218084D01*
X115009899Y-70215100D01*
X115009894Y-70215093D01*
X114813726Y-69963558D01*
X114813724Y-69963556D01*
X114811390Y-69960563D01*
X114748159Y-69897000D01*
X123688028Y-69897000D01*
X123707886Y-70149324D01*
X123709040Y-70154131D01*
X123709041Y-70154137D01*
X123735016Y-70262331D01*
X123766972Y-70395436D01*
X123768865Y-70400007D01*
X123768866Y-70400009D01*
X123808052Y-70494611D01*
X123863831Y-70629274D01*
X123996078Y-70845081D01*
X124160457Y-71037543D01*
X124352919Y-71201922D01*
X124568726Y-71334169D01*
X124573296Y-71336062D01*
X124573300Y-71336064D01*
X124797704Y-71429015D01*
X124802564Y-71431028D01*
X124887655Y-71451457D01*
X125043863Y-71488959D01*
X125043869Y-71488960D01*
X125048676Y-71490114D01*
X125301000Y-71509972D01*
X125553324Y-71490114D01*
X125558131Y-71488960D01*
X125558137Y-71488959D01*
X125714345Y-71451457D01*
X125799436Y-71431028D01*
X125804296Y-71429015D01*
X126028700Y-71336064D01*
X126028704Y-71336062D01*
X126033274Y-71334169D01*
X126249081Y-71201922D01*
X126441543Y-71037543D01*
X126605922Y-70845081D01*
X126738169Y-70629274D01*
X126793949Y-70494611D01*
X126833134Y-70400009D01*
X126833135Y-70400007D01*
X126835028Y-70395436D01*
X126866984Y-70262331D01*
X126892959Y-70154137D01*
X126892960Y-70154131D01*
X126894114Y-70149324D01*
X126913972Y-69897000D01*
X126894114Y-69644676D01*
X126883629Y-69601000D01*
X126836183Y-69403376D01*
X126835028Y-69398564D01*
X126829125Y-69384313D01*
X126740064Y-69169300D01*
X126740062Y-69169296D01*
X126738169Y-69164726D01*
X126605922Y-68948919D01*
X126441543Y-68756457D01*
X126249081Y-68592078D01*
X126033274Y-68459831D01*
X126028704Y-68457938D01*
X126028700Y-68457936D01*
X125804009Y-68364866D01*
X125804007Y-68364865D01*
X125799436Y-68362972D01*
X125714345Y-68342543D01*
X125558137Y-68305041D01*
X125558131Y-68305040D01*
X125553324Y-68303886D01*
X125301000Y-68284028D01*
X125048676Y-68303886D01*
X125043869Y-68305040D01*
X125043863Y-68305041D01*
X124887655Y-68342543D01*
X124802564Y-68362972D01*
X124797993Y-68364865D01*
X124797991Y-68364866D01*
X124573300Y-68457936D01*
X124573296Y-68457938D01*
X124568726Y-68459831D01*
X124352919Y-68592078D01*
X124160457Y-68756457D01*
X123996078Y-68948919D01*
X123863831Y-69164726D01*
X123861938Y-69169296D01*
X123861936Y-69169300D01*
X123772875Y-69384313D01*
X123766972Y-69398564D01*
X123765817Y-69403376D01*
X123718372Y-69601000D01*
X123707886Y-69644676D01*
X123688028Y-69897000D01*
X114748159Y-69897000D01*
X114581070Y-69729034D01*
X114324603Y-69526852D01*
X114045705Y-69356945D01*
X114042261Y-69355379D01*
X114042257Y-69355377D01*
X113931458Y-69305000D01*
X113748414Y-69221775D01*
X113437037Y-69123300D01*
X113219492Y-69082390D01*
X113119809Y-69063645D01*
X113119807Y-69063645D01*
X113116086Y-69062945D01*
X112790208Y-69041586D01*
X112786428Y-69041794D01*
X112786427Y-69041794D01*
X112688897Y-69047162D01*
X112464124Y-69059532D01*
X112460397Y-69060193D01*
X112460393Y-69060193D01*
X112303341Y-69088027D01*
X112142557Y-69116522D01*
X112138941Y-69117624D01*
X112138933Y-69117626D01*
X111833789Y-69210627D01*
X111830167Y-69211731D01*
X111531477Y-69343781D01*
X111447081Y-69393991D01*
X111254074Y-69508817D01*
X111254068Y-69508821D01*
X111250814Y-69510757D01*
X111247812Y-69513073D01*
X111077231Y-69644676D01*
X110992244Y-69710243D01*
X110759513Y-69939347D01*
X110757149Y-69942314D01*
X110757146Y-69942317D01*
X110596213Y-70144275D01*
X110555991Y-70194751D01*
X110384626Y-70472757D01*
X110247902Y-70769336D01*
X110246741Y-70772940D01*
X110246741Y-70772941D01*
X110231876Y-70819102D01*
X110147797Y-71080192D01*
X110147079Y-71083903D01*
X110147078Y-71083907D01*
X110086482Y-71397105D01*
X110086481Y-71397114D01*
X110085763Y-71400824D01*
X110085496Y-71404600D01*
X110085495Y-71404605D01*
X110062966Y-71722796D01*
X110062698Y-71726585D01*
X107469421Y-71726585D01*
X107463214Y-71701875D01*
X107459894Y-71692124D01*
X107374972Y-71496814D01*
X107370105Y-71487739D01*
X107254426Y-71308926D01*
X107248136Y-71300757D01*
X107104806Y-71143240D01*
X107097273Y-71136215D01*
X106930139Y-71004222D01*
X106921552Y-70998517D01*
X106735117Y-70895599D01*
X106725705Y-70891369D01*
X106524959Y-70820280D01*
X106514988Y-70817646D01*
X106443837Y-70804972D01*
X106430540Y-70806432D01*
X106426000Y-70820989D01*
X106426000Y-71863885D01*
X105918000Y-71863885D01*
X105918000Y-70819102D01*
X105914082Y-70805758D01*
X105899806Y-70803771D01*
X105861324Y-70809660D01*
X105851288Y-70812051D01*
X105648868Y-70878212D01*
X105639359Y-70882209D01*
X105450463Y-70980542D01*
X105441738Y-70986036D01*
X105271433Y-71113905D01*
X105263726Y-71120748D01*
X105116590Y-71274717D01*
X105110109Y-71282722D01*
X105005498Y-71436074D01*
X104950587Y-71481076D01*
X104880062Y-71489247D01*
X104816315Y-71457993D01*
X104795618Y-71433509D01*
X104714822Y-71308617D01*
X104714820Y-71308614D01*
X104712014Y-71304277D01*
X104561670Y-71139051D01*
X104557619Y-71135852D01*
X104557615Y-71135848D01*
X104390414Y-71003800D01*
X104390410Y-71003798D01*
X104386359Y-71000598D01*
X104350028Y-70980542D01*
X104334136Y-70971769D01*
X104190789Y-70892638D01*
X104185920Y-70890914D01*
X104185916Y-70890912D01*
X103985087Y-70819795D01*
X103985083Y-70819794D01*
X103980212Y-70818069D01*
X103975119Y-70817162D01*
X103975116Y-70817161D01*
X103765373Y-70779800D01*
X103765367Y-70779799D01*
X103760284Y-70778894D01*
X103740526Y-70778653D01*
X103672656Y-70757821D01*
X103626821Y-70703603D01*
X103617574Y-70633211D01*
X103647853Y-70568994D01*
X103652969Y-70563567D01*
X107191631Y-67024905D01*
X107253943Y-66990879D01*
X107280726Y-66988000D01*
X107321073Y-66988000D01*
X107389194Y-67008002D01*
X107435687Y-67061658D01*
X107445791Y-67131932D01*
X107442780Y-67146610D01*
X107393248Y-67331468D01*
X107372904Y-67564000D01*
X107393248Y-67796532D01*
X107453661Y-68021998D01*
X107455983Y-68026978D01*
X107455984Y-68026980D01*
X107549983Y-68228561D01*
X107549986Y-68228566D01*
X107552309Y-68233548D01*
X107555465Y-68238055D01*
X107555466Y-68238057D01*
X107642933Y-68362972D01*
X107686193Y-68424754D01*
X107851246Y-68589807D01*
X107855754Y-68592964D01*
X107855757Y-68592966D01*
X107859075Y-68595289D01*
X108042452Y-68723691D01*
X108047434Y-68726014D01*
X108047439Y-68726017D01*
X108249020Y-68820016D01*
X108254002Y-68822339D01*
X108259310Y-68823761D01*
X108259312Y-68823762D01*
X108474153Y-68881328D01*
X108474155Y-68881328D01*
X108479468Y-68882752D01*
X108712000Y-68903096D01*
X108944532Y-68882752D01*
X108949845Y-68881328D01*
X108949847Y-68881328D01*
X109164688Y-68823762D01*
X109164690Y-68823761D01*
X109169998Y-68822339D01*
X109174980Y-68820016D01*
X109376561Y-68726017D01*
X109376566Y-68726014D01*
X109381548Y-68723691D01*
X109564925Y-68595289D01*
X109568243Y-68592966D01*
X109568246Y-68592964D01*
X109572754Y-68589807D01*
X109737807Y-68424754D01*
X109781068Y-68362972D01*
X109868534Y-68238057D01*
X109868535Y-68238055D01*
X109871691Y-68233548D01*
X109874014Y-68228566D01*
X109874017Y-68228561D01*
X109968016Y-68026980D01*
X109968017Y-68026978D01*
X109970339Y-68021998D01*
X110030752Y-67796532D01*
X110051096Y-67564000D01*
X110030752Y-67331468D01*
X109981220Y-67146611D01*
X109982910Y-67075635D01*
X110022704Y-67016839D01*
X110087969Y-66988891D01*
X110102927Y-66988000D01*
X112048412Y-66988000D01*
X112116533Y-67008002D01*
X112155844Y-67048165D01*
X112181285Y-67089680D01*
X112181290Y-67089686D01*
X112183987Y-67094088D01*
X112330250Y-67262938D01*
X112502126Y-67405632D01*
X112695000Y-67518338D01*
X112903692Y-67598030D01*
X112908760Y-67599061D01*
X112908763Y-67599062D01*
X113016017Y-67620883D01*
X113122597Y-67642567D01*
X113127772Y-67642757D01*
X113127774Y-67642757D01*
X113340673Y-67650564D01*
X113340677Y-67650564D01*
X113345837Y-67650753D01*
X113350957Y-67650097D01*
X113350959Y-67650097D01*
X113562288Y-67623025D01*
X113562289Y-67623025D01*
X113567416Y-67622368D01*
X113572366Y-67620883D01*
X113776429Y-67559661D01*
X113776434Y-67559659D01*
X113781384Y-67558174D01*
X113981994Y-67459896D01*
X114163860Y-67330173D01*
X114322096Y-67172489D01*
X114369872Y-67106002D01*
X114449435Y-66995277D01*
X114452453Y-66991077D01*
X114551430Y-66790811D01*
X114616370Y-66577069D01*
X114645529Y-66355590D01*
X114647156Y-66289000D01*
X114628852Y-66066361D01*
X114574431Y-65849702D01*
X114485354Y-65644840D01*
X114364014Y-65457277D01*
X114360532Y-65453450D01*
X114216798Y-65295488D01*
X114185746Y-65231642D01*
X114194141Y-65161143D01*
X114239317Y-65106375D01*
X114265761Y-65092706D01*
X114372297Y-65052767D01*
X114380705Y-65049615D01*
X114497261Y-64962261D01*
X114584615Y-64845705D01*
X114635745Y-64709316D01*
X114642500Y-64647134D01*
X114642500Y-62850866D01*
X114635745Y-62788684D01*
X114584615Y-62652295D01*
X114497261Y-62535739D01*
X114380705Y-62448385D01*
X114244316Y-62397255D01*
X114182134Y-62390500D01*
X112385866Y-62390500D01*
X112323684Y-62397255D01*
X112187295Y-62448385D01*
X112070739Y-62535739D01*
X111983385Y-62652295D01*
X111932255Y-62788684D01*
X111925500Y-62850866D01*
X111925500Y-64647134D01*
X111932255Y-64709316D01*
X111983385Y-64845705D01*
X112070739Y-64962261D01*
X112187295Y-65049615D01*
X112195704Y-65052767D01*
X112195705Y-65052768D01*
X112304451Y-65093535D01*
X112361216Y-65136176D01*
X112385916Y-65202738D01*
X112370709Y-65272087D01*
X112351316Y-65298568D01*
X112224629Y-65431138D01*
X112153775Y-65535007D01*
X112098866Y-65580007D01*
X112049689Y-65590000D01*
X106967600Y-65590000D01*
X106959029Y-65589708D01*
X106902149Y-65585830D01*
X106840065Y-65596666D01*
X106833586Y-65597622D01*
X106771040Y-65605191D01*
X106763938Y-65607875D01*
X106760456Y-65608730D01*
X106746421Y-65612570D01*
X106742973Y-65613611D01*
X106735483Y-65614918D01*
X106728522Y-65617974D01*
X106728521Y-65617974D01*
X106677805Y-65640237D01*
X106671697Y-65642730D01*
X106653543Y-65649590D01*
X106612778Y-65664994D01*
X106606512Y-65669300D01*
X106603357Y-65670950D01*
X106590565Y-65678069D01*
X106587521Y-65679869D01*
X106580567Y-65682922D01*
X106574539Y-65687547D01*
X106574538Y-65687548D01*
X106530604Y-65721260D01*
X106525267Y-65725138D01*
X106473348Y-65760821D01*
X106468296Y-65766491D01*
X106468295Y-65766492D01*
X106432482Y-65806688D01*
X106427501Y-65811964D01*
X102006095Y-70233370D01*
X101943783Y-70267396D01*
X101872968Y-70262331D01*
X101816132Y-70219784D01*
X101791321Y-70153264D01*
X101791000Y-70144275D01*
X101791000Y-65560589D01*
X101791292Y-65552019D01*
X101794653Y-65502724D01*
X101794653Y-65502720D01*
X101795169Y-65495148D01*
X101784337Y-65433085D01*
X101783375Y-65426564D01*
X101776722Y-65371582D01*
X101776721Y-65371579D01*
X101775809Y-65364040D01*
X101773123Y-65356931D01*
X101772277Y-65353488D01*
X101768414Y-65339363D01*
X101767386Y-65335958D01*
X101766081Y-65328482D01*
X101740765Y-65270810D01*
X101738277Y-65264715D01*
X101718690Y-65212880D01*
X101718689Y-65212878D01*
X101716006Y-65205778D01*
X101711709Y-65199526D01*
X101710066Y-65196383D01*
X101702971Y-65183635D01*
X101701130Y-65180523D01*
X101698077Y-65173567D01*
X101659732Y-65123593D01*
X101655861Y-65118266D01*
X101624481Y-65072607D01*
X101624480Y-65072605D01*
X101620179Y-65066348D01*
X101601399Y-65049615D01*
X101574321Y-65025490D01*
X101569045Y-65020509D01*
X100887241Y-64338705D01*
X100197405Y-63648870D01*
X100163380Y-63586558D01*
X100160500Y-63559775D01*
X100160500Y-62992000D01*
X107098526Y-62992000D01*
X107118391Y-63244403D01*
X107177495Y-63490591D01*
X107179388Y-63495162D01*
X107179389Y-63495164D01*
X107227770Y-63611965D01*
X107274384Y-63724502D01*
X107406672Y-63940376D01*
X107571102Y-64132898D01*
X107763624Y-64297328D01*
X107979498Y-64429616D01*
X107984068Y-64431509D01*
X107984072Y-64431511D01*
X108054401Y-64460642D01*
X108213409Y-64526505D01*
X108280513Y-64542615D01*
X108454784Y-64584454D01*
X108454790Y-64584455D01*
X108459597Y-64585609D01*
X108712000Y-64605474D01*
X108964403Y-64585609D01*
X108969210Y-64584455D01*
X108969216Y-64584454D01*
X109143487Y-64542615D01*
X109210591Y-64526505D01*
X109369599Y-64460642D01*
X109439928Y-64431511D01*
X109439932Y-64431509D01*
X109444502Y-64429616D01*
X109660376Y-64297328D01*
X109852898Y-64132898D01*
X110017328Y-63940376D01*
X110149616Y-63724502D01*
X110196231Y-63611965D01*
X110244611Y-63495164D01*
X110244612Y-63495162D01*
X110246505Y-63490591D01*
X110305609Y-63244403D01*
X110325474Y-62992000D01*
X110305609Y-62739597D01*
X110286669Y-62660703D01*
X110256667Y-62535739D01*
X110246505Y-62493409D01*
X110244611Y-62488836D01*
X110151511Y-62264072D01*
X110151509Y-62264068D01*
X110149616Y-62259498D01*
X110017328Y-62043624D01*
X109852898Y-61851102D01*
X109660376Y-61686672D01*
X109444502Y-61554384D01*
X109439932Y-61552491D01*
X109439928Y-61552489D01*
X109215164Y-61459389D01*
X109215162Y-61459388D01*
X109210591Y-61457495D01*
X109092458Y-61429134D01*
X108969216Y-61399546D01*
X108969210Y-61399545D01*
X108964403Y-61398391D01*
X108712000Y-61378526D01*
X108459597Y-61398391D01*
X108454790Y-61399545D01*
X108454784Y-61399546D01*
X108331542Y-61429134D01*
X108213409Y-61457495D01*
X108208838Y-61459388D01*
X108208836Y-61459389D01*
X107984072Y-61552489D01*
X107984068Y-61552491D01*
X107979498Y-61554384D01*
X107763624Y-61686672D01*
X107571102Y-61851102D01*
X107406672Y-62043624D01*
X107274384Y-62259498D01*
X107272491Y-62264068D01*
X107272489Y-62264072D01*
X107179389Y-62488836D01*
X107177495Y-62493409D01*
X107167333Y-62535739D01*
X107137332Y-62660703D01*
X107118391Y-62739597D01*
X107098526Y-62992000D01*
X100160500Y-62992000D01*
X100160500Y-61843866D01*
X100153745Y-61781684D01*
X100102615Y-61645295D01*
X100015261Y-61528739D01*
X99898705Y-61441385D01*
X99762316Y-61390255D01*
X99700134Y-61383500D01*
X97403866Y-61383500D01*
X97341684Y-61390255D01*
X97205295Y-61441385D01*
X97088739Y-61528739D01*
X97001385Y-61645295D01*
X96950255Y-61781684D01*
X96943500Y-61843866D01*
X96943500Y-64140134D01*
X96393000Y-64140134D01*
X96393000Y-59143134D01*
X99631000Y-59143134D01*
X99637755Y-59205316D01*
X99688885Y-59341705D01*
X99776239Y-59458261D01*
X99892795Y-59545615D01*
X100029184Y-59596745D01*
X100091366Y-59603500D01*
X102092634Y-59603500D01*
X102154816Y-59596745D01*
X102291205Y-59545615D01*
X102407761Y-59458261D01*
X102495115Y-59341705D01*
X102502573Y-59321811D01*
X102545213Y-59265047D01*
X102611774Y-59240346D01*
X102681123Y-59255553D01*
X102698647Y-59267158D01*
X102816670Y-59360367D01*
X102816675Y-59360370D01*
X102820724Y-59363568D01*
X102825240Y-59366061D01*
X102825243Y-59366063D01*
X103026526Y-59477177D01*
X103026530Y-59477179D01*
X103031050Y-59479674D01*
X103035919Y-59481398D01*
X103035923Y-59481400D01*
X103252640Y-59558144D01*
X103252644Y-59558145D01*
X103257515Y-59559870D01*
X103262608Y-59560777D01*
X103262611Y-59560778D01*
X103488948Y-59601095D01*
X103488954Y-59601096D01*
X103494037Y-59602001D01*
X103581400Y-59603068D01*
X103729093Y-59604873D01*
X103729095Y-59604873D01*
X103734263Y-59604936D01*
X103971744Y-59568596D01*
X104083997Y-59531906D01*
X104195183Y-59495566D01*
X104195189Y-59495563D01*
X104200101Y-59493958D01*
X104204687Y-59491571D01*
X104204691Y-59491569D01*
X104408607Y-59385416D01*
X104413200Y-59383025D01*
X104494728Y-59321812D01*
X104601185Y-59241882D01*
X104601188Y-59241880D01*
X104605320Y-59238777D01*
X104771301Y-59065088D01*
X104796840Y-59027649D01*
X104851751Y-58982648D01*
X104922275Y-58974477D01*
X104986022Y-59005731D01*
X105006716Y-59030210D01*
X105008085Y-59032326D01*
X105014378Y-59040498D01*
X105169050Y-59210480D01*
X105176583Y-59217506D01*
X105356944Y-59359945D01*
X105365531Y-59365650D01*
X105566722Y-59476714D01*
X105576134Y-59480944D01*
X105792768Y-59557659D01*
X105802739Y-59560293D01*
X105900163Y-59577647D01*
X105913460Y-59576187D01*
X105917543Y-59563096D01*
X106426000Y-59563096D01*
X106429918Y-59576440D01*
X106444194Y-59578427D01*
X106506515Y-59568890D01*
X106516543Y-59566501D01*
X106734988Y-59495102D01*
X106744497Y-59491105D01*
X106948344Y-59384989D01*
X106957069Y-59379495D01*
X107140852Y-59241507D01*
X107148559Y-59234664D01*
X107307339Y-59068509D01*
X107313826Y-59060499D01*
X107443330Y-58870653D01*
X107448429Y-58861679D01*
X107545187Y-58653231D01*
X107548750Y-58643544D01*
X107610165Y-58422092D01*
X107612096Y-58411970D01*
X107616901Y-58367013D01*
X107614253Y-58352392D01*
X107601876Y-58349000D01*
X106444115Y-58349000D01*
X106428876Y-58353475D01*
X106427671Y-58354865D01*
X106426000Y-58362548D01*
X106426000Y-59563096D01*
X105917543Y-59563096D01*
X105918000Y-59561630D01*
X105918000Y-57883585D01*
X110062698Y-57883585D01*
X110078936Y-58209759D01*
X110079577Y-58213490D01*
X110079578Y-58213498D01*
X110121906Y-58459831D01*
X110134241Y-58531619D01*
X110227814Y-58844504D01*
X110229327Y-58847975D01*
X110229329Y-58847981D01*
X110307638Y-59027650D01*
X110358297Y-59143881D01*
X110360220Y-59147152D01*
X110360222Y-59147156D01*
X110401579Y-59217506D01*
X110523802Y-59425414D01*
X110526103Y-59428429D01*
X110719631Y-59682012D01*
X110719636Y-59682017D01*
X110721931Y-59685025D01*
X110783931Y-59748670D01*
X110923626Y-59892070D01*
X110949814Y-59918953D01*
X111022635Y-59977607D01*
X111201196Y-60121431D01*
X111201201Y-60121435D01*
X111204149Y-60123809D01*
X111481253Y-60296627D01*
X111777112Y-60434903D01*
X111780721Y-60436086D01*
X111942134Y-60489000D01*
X112087440Y-60536634D01*
X112407742Y-60600346D01*
X112411514Y-60600633D01*
X112411522Y-60600634D01*
X112729602Y-60624829D01*
X112729607Y-60624829D01*
X112733379Y-60625116D01*
X113059633Y-60610586D01*
X113119425Y-60600634D01*
X113378037Y-60557590D01*
X113378042Y-60557589D01*
X113381778Y-60556967D01*
X113695149Y-60465034D01*
X113698616Y-60463544D01*
X113698620Y-60463543D01*
X113991721Y-60337616D01*
X113991723Y-60337615D01*
X113995205Y-60336119D01*
X114277601Y-60172091D01*
X114538245Y-59975324D01*
X114619494Y-59897000D01*
X117688028Y-59897000D01*
X117707886Y-60149324D01*
X117709040Y-60154131D01*
X117709041Y-60154137D01*
X117742768Y-60294618D01*
X117766972Y-60395436D01*
X117768865Y-60400007D01*
X117768866Y-60400009D01*
X117855832Y-60609962D01*
X117863831Y-60629274D01*
X117996078Y-60845081D01*
X118160457Y-61037543D01*
X118352919Y-61201922D01*
X118568726Y-61334169D01*
X118573296Y-61336062D01*
X118573300Y-61336064D01*
X118797991Y-61429134D01*
X118802564Y-61431028D01*
X118868139Y-61446771D01*
X119043863Y-61488959D01*
X119043869Y-61488960D01*
X119048676Y-61490114D01*
X119301000Y-61509972D01*
X119553324Y-61490114D01*
X119558131Y-61488960D01*
X119558137Y-61488959D01*
X119733861Y-61446771D01*
X119799436Y-61431028D01*
X119804009Y-61429134D01*
X120028700Y-61336064D01*
X120028704Y-61336062D01*
X120033274Y-61334169D01*
X120249081Y-61201922D01*
X120441543Y-61037543D01*
X120605922Y-60845081D01*
X120738169Y-60629274D01*
X120746169Y-60609962D01*
X120833134Y-60400009D01*
X120833135Y-60400007D01*
X120835028Y-60395436D01*
X120859232Y-60294618D01*
X120892959Y-60154137D01*
X120892960Y-60154131D01*
X120894114Y-60149324D01*
X120913972Y-59897000D01*
X120894114Y-59644676D01*
X120884574Y-59604936D01*
X120836183Y-59403376D01*
X120835028Y-59398564D01*
X120828592Y-59383025D01*
X120740064Y-59169300D01*
X120740062Y-59169296D01*
X120738169Y-59164726D01*
X120605922Y-58948919D01*
X120441543Y-58756457D01*
X120249081Y-58592078D01*
X120033274Y-58459831D01*
X120028704Y-58457938D01*
X120028700Y-58457936D01*
X119804009Y-58364866D01*
X119804007Y-58364865D01*
X119799436Y-58362972D01*
X119714345Y-58342543D01*
X119558137Y-58305041D01*
X119558131Y-58305040D01*
X119553324Y-58303886D01*
X119301000Y-58284028D01*
X119048676Y-58303886D01*
X119043869Y-58305040D01*
X119043863Y-58305041D01*
X118887655Y-58342543D01*
X118802564Y-58362972D01*
X118797993Y-58364865D01*
X118797991Y-58364866D01*
X118573300Y-58457936D01*
X118573296Y-58457938D01*
X118568726Y-58459831D01*
X118352919Y-58592078D01*
X118160457Y-58756457D01*
X117996078Y-58948919D01*
X117863831Y-59164726D01*
X117861938Y-59169296D01*
X117861936Y-59169300D01*
X117773408Y-59383025D01*
X117766972Y-59398564D01*
X117765817Y-59403376D01*
X117717427Y-59604936D01*
X117707886Y-59644676D01*
X117688028Y-59897000D01*
X114619494Y-59897000D01*
X114773363Y-59748670D01*
X114924444Y-59563096D01*
X114977155Y-59498351D01*
X114977158Y-59498347D01*
X114979549Y-59495410D01*
X114981570Y-59492207D01*
X115151788Y-59222428D01*
X115151790Y-59222425D01*
X115153815Y-59219215D01*
X115156895Y-59212715D01*
X115265892Y-58982648D01*
X115293638Y-58924084D01*
X115320188Y-58844504D01*
X115395790Y-58617897D01*
X115395792Y-58617891D01*
X115396992Y-58614293D01*
X115462381Y-58294329D01*
X115463188Y-58284416D01*
X115480798Y-58067899D01*
X115488856Y-57968826D01*
X115489451Y-57912000D01*
X115487510Y-57879796D01*
X115470026Y-57589793D01*
X115470026Y-57589789D01*
X115469798Y-57586015D01*
X115468742Y-57580229D01*
X115411805Y-57268473D01*
X115411804Y-57268469D01*
X115411125Y-57264751D01*
X115403722Y-57240907D01*
X115326602Y-56992540D01*
X115314282Y-56952863D01*
X115180670Y-56654869D01*
X115012226Y-56375084D01*
X115009899Y-56372100D01*
X115009894Y-56372093D01*
X114813726Y-56120558D01*
X114813724Y-56120556D01*
X114811390Y-56117563D01*
X114581070Y-55886034D01*
X114324603Y-55683852D01*
X114045705Y-55513945D01*
X114042261Y-55512379D01*
X114042257Y-55512377D01*
X113931667Y-55462095D01*
X113748414Y-55378775D01*
X113437037Y-55280300D01*
X113201217Y-55235954D01*
X113119809Y-55220645D01*
X113119807Y-55220645D01*
X113116086Y-55219945D01*
X112790208Y-55198586D01*
X112786428Y-55198794D01*
X112786427Y-55198794D01*
X112688897Y-55204162D01*
X112464124Y-55216532D01*
X112460397Y-55217193D01*
X112460393Y-55217193D01*
X112354535Y-55235954D01*
X112142557Y-55273522D01*
X112138941Y-55274624D01*
X112138933Y-55274626D01*
X111849069Y-55362970D01*
X111830167Y-55368731D01*
X111531477Y-55500781D01*
X111506041Y-55515914D01*
X111254074Y-55665817D01*
X111254068Y-55665821D01*
X111250814Y-55667757D01*
X111247812Y-55670073D01*
X111001639Y-55859995D01*
X110992244Y-55867243D01*
X110759513Y-56096347D01*
X110757149Y-56099314D01*
X110757146Y-56099317D01*
X110740220Y-56120558D01*
X110555991Y-56351751D01*
X110384626Y-56629757D01*
X110374551Y-56651611D01*
X110301301Y-56810505D01*
X110247902Y-56926336D01*
X110246741Y-56929940D01*
X110246741Y-56929941D01*
X110238563Y-56955336D01*
X110147797Y-57237192D01*
X110147079Y-57240903D01*
X110147078Y-57240907D01*
X110086482Y-57554105D01*
X110086481Y-57554114D01*
X110085763Y-57557824D01*
X110085496Y-57561600D01*
X110085495Y-57561605D01*
X110066854Y-57824889D01*
X110062698Y-57883585D01*
X105918000Y-57883585D01*
X105918000Y-57822885D01*
X106426000Y-57822885D01*
X106430475Y-57838124D01*
X106431865Y-57839329D01*
X106439548Y-57841000D01*
X107602412Y-57841000D01*
X107617141Y-57836675D01*
X107619202Y-57824889D01*
X107618249Y-57813296D01*
X107616567Y-57803134D01*
X107560578Y-57580229D01*
X107557259Y-57570481D01*
X107465615Y-57359711D01*
X107460749Y-57350636D01*
X107335915Y-57157673D01*
X107329622Y-57149502D01*
X107174950Y-56979520D01*
X107167417Y-56972494D01*
X106987056Y-56830055D01*
X106978469Y-56824350D01*
X106777278Y-56713286D01*
X106767866Y-56709056D01*
X106551232Y-56632341D01*
X106541261Y-56629707D01*
X106443837Y-56612353D01*
X106430540Y-56613813D01*
X106426000Y-56628370D01*
X106426000Y-57822885D01*
X105918000Y-57822885D01*
X105918000Y-56626904D01*
X105914082Y-56613560D01*
X105899806Y-56611573D01*
X105837485Y-56621110D01*
X105827457Y-56623499D01*
X105609012Y-56694898D01*
X105599503Y-56698895D01*
X105395656Y-56805011D01*
X105386931Y-56810505D01*
X105203148Y-56948493D01*
X105195441Y-56955336D01*
X105036661Y-57121491D01*
X105030177Y-57129498D01*
X105007763Y-57162356D01*
X104952852Y-57207359D01*
X104882328Y-57215532D01*
X104818580Y-57184278D01*
X104797884Y-57159796D01*
X104796311Y-57157365D01*
X104793502Y-57153023D01*
X104631814Y-56975330D01*
X104554983Y-56914653D01*
X104447330Y-56829633D01*
X104447325Y-56829630D01*
X104443276Y-56826432D01*
X104438760Y-56823939D01*
X104438757Y-56823937D01*
X104237474Y-56712823D01*
X104237470Y-56712821D01*
X104232950Y-56710326D01*
X104228081Y-56708602D01*
X104228077Y-56708600D01*
X104011360Y-56631856D01*
X104011356Y-56631855D01*
X104006485Y-56630130D01*
X104001392Y-56629223D01*
X104001389Y-56629222D01*
X103775052Y-56588905D01*
X103775046Y-56588904D01*
X103769963Y-56587999D01*
X103677474Y-56586869D01*
X103534907Y-56585127D01*
X103534905Y-56585127D01*
X103529737Y-56585064D01*
X103292256Y-56621404D01*
X103199837Y-56651611D01*
X103068817Y-56694434D01*
X103068811Y-56694437D01*
X103063899Y-56696042D01*
X103059313Y-56698429D01*
X103059309Y-56698431D01*
X102855393Y-56804584D01*
X102850800Y-56806975D01*
X102695717Y-56923415D01*
X102629235Y-56948320D01*
X102559839Y-56933328D01*
X102509565Y-56883198D01*
X102502085Y-56866885D01*
X102498269Y-56856707D01*
X102498267Y-56856703D01*
X102495115Y-56848295D01*
X102407761Y-56731739D01*
X102291205Y-56644385D01*
X102154816Y-56593255D01*
X102092634Y-56586500D01*
X100091366Y-56586500D01*
X100029184Y-56593255D01*
X99892795Y-56644385D01*
X99776239Y-56731739D01*
X99688885Y-56848295D01*
X99637755Y-56984684D01*
X99631000Y-57046866D01*
X99631000Y-59143134D01*
X96393000Y-59143134D01*
X96393000Y-55929328D01*
X96394500Y-55909943D01*
X96396805Y-55895142D01*
X96396805Y-55895139D01*
X96398186Y-55886270D01*
X96397022Y-55877369D01*
X96397022Y-55877365D01*
X96396532Y-55873621D01*
X96395948Y-55846307D01*
X96407474Y-55714554D01*
X96411287Y-55692930D01*
X96451420Y-55543152D01*
X96458931Y-55522516D01*
X96524460Y-55381990D01*
X96535442Y-55362970D01*
X96624379Y-55235954D01*
X96638497Y-55219129D01*
X96748129Y-55109497D01*
X96764954Y-55095379D01*
X96891970Y-55006442D01*
X96910990Y-54995460D01*
X97051516Y-54929931D01*
X97072152Y-54922420D01*
X97221930Y-54882287D01*
X97243552Y-54878474D01*
X97281071Y-54875192D01*
X97368419Y-54867551D01*
X97384879Y-54868103D01*
X97384884Y-54867695D01*
X97393858Y-54867805D01*
X97402730Y-54869186D01*
X97411632Y-54868022D01*
X97411635Y-54868022D01*
X97434251Y-54865064D01*
X97450589Y-54864000D01*
X126823672Y-54864000D01*
X126843057Y-54865500D01*
G37*
G04 #@! TD.AperFunction*
M02*
