%FSLAX45Y45*%
G04 Gerber Fmt 4.5, Leading zero omitted, Abs format (unit mm)*
G04 Created by KiCad (PCBNEW (6.0.1-0)) date 2022-06-21 09:38:59*
%MOMM*%
%LPD*%
G01*
G04 APERTURE LIST*
%TA.AperFunction,Profile*%
%ADD10C,0.100000*%
%TD*%
%ADD11C,0.200000*%
G04 APERTURE END LIST*
D10*
X9740900Y-5435600D02*
G75*
G03*
X9588500Y-5588000I0J-152400D01*
G01*
X12687300Y-5435600D02*
X9740900Y-5435600D01*
X9588500Y-7404100D02*
G75*
G03*
X9740900Y-7556500I152400J0D01*
G01*
X12839700Y-5588000D02*
G75*
G03*
X12687300Y-5435600I-152400J0D01*
G01*
X9588500Y-5588000D02*
X9588500Y-7404100D01*
X12839700Y-7404100D02*
X12839700Y-5588000D01*
X12687300Y-7556500D02*
G75*
G03*
X12839700Y-7404100I0J152400D01*
G01*
X9740900Y-7556500D02*
X12687300Y-7556500D01*
D11*
X9841119Y-7871976D02*
X9841119Y-7671976D01*
X9888738Y-7671976D01*
X9917310Y-7681500D01*
X9936357Y-7700548D01*
X9945881Y-7719595D01*
X9955405Y-7757690D01*
X9955405Y-7786262D01*
X9945881Y-7824357D01*
X9936357Y-7843405D01*
X9917310Y-7862452D01*
X9888738Y-7871976D01*
X9841119Y-7871976D01*
X10041119Y-7871976D02*
X10041119Y-7738643D01*
X10041119Y-7776738D02*
X10050643Y-7757690D01*
X10060167Y-7748167D01*
X10079214Y-7738643D01*
X10098262Y-7738643D01*
X10164929Y-7871976D02*
X10164929Y-7738643D01*
X10164929Y-7671976D02*
X10155405Y-7681500D01*
X10164929Y-7691024D01*
X10174452Y-7681500D01*
X10164929Y-7671976D01*
X10164929Y-7691024D01*
X10288738Y-7871976D02*
X10269690Y-7862452D01*
X10260167Y-7843405D01*
X10260167Y-7671976D01*
X10393500Y-7871976D02*
X10374452Y-7862452D01*
X10364929Y-7843405D01*
X10364929Y-7671976D01*
X10622071Y-7871976D02*
X10622071Y-7671976D01*
X10688738Y-7814833D01*
X10755405Y-7671976D01*
X10755405Y-7871976D01*
X10936357Y-7871976D02*
X10936357Y-7767214D01*
X10926833Y-7748167D01*
X10907786Y-7738643D01*
X10869690Y-7738643D01*
X10850643Y-7748167D01*
X10936357Y-7862452D02*
X10917310Y-7871976D01*
X10869690Y-7871976D01*
X10850643Y-7862452D01*
X10841119Y-7843405D01*
X10841119Y-7824357D01*
X10850643Y-7805309D01*
X10869690Y-7795786D01*
X10917310Y-7795786D01*
X10936357Y-7786262D01*
X11031595Y-7738643D02*
X11031595Y-7938643D01*
X11031595Y-7748167D02*
X11050643Y-7738643D01*
X11088738Y-7738643D01*
X11107786Y-7748167D01*
X11117310Y-7757690D01*
X11126833Y-7776738D01*
X11126833Y-7833881D01*
X11117310Y-7852928D01*
X11107786Y-7862452D01*
X11088738Y-7871976D01*
X11050643Y-7871976D01*
X11031595Y-7862452D01*
X11212548Y-7852928D02*
X11222071Y-7862452D01*
X11212548Y-7871976D01*
X11203024Y-7862452D01*
X11212548Y-7852928D01*
X11212548Y-7871976D01*
X11212548Y-7748167D02*
X11222071Y-7757690D01*
X11212548Y-7767214D01*
X11203024Y-7757690D01*
X11212548Y-7748167D01*
X11212548Y-7767214D01*
M02*
